<?xml version="1.0" encoding="UTF-8" standalone="no"?>
<svg
   xmlns:dc="http://purl.org/dc/elements/1.1/"
   xmlns:cc="http://creativecommons.org/ns#"
   xmlns:rdf="http://www.w3.org/1999/02/22-rdf-syntax-ns#"
   xmlns:svg="http://www.w3.org/2000/svg"
   xmlns="http://www.w3.org/2000/svg"
   xmlns:sodipodi="http://sodipodi.sourceforge.net/DTD/sodipodi-0.dtd"
   xmlns:inkscape="http://www.inkscape.org/namespaces/inkscape"
   version="1.1"
   viewBox="0 0 720 339"
   stroke-miterlimit="10"
   id="svg2"
   inkscape:version="0.91 r13725"
   sodipodi:docname="Merklizing ASTs-grouping.svg"
   width="720"
   height="339"
   style="fill:none;stroke:none;stroke-linecap:square;stroke-miterlimit:10">
  <metadata
     id="metadata223">
    <rdf:RDF>
      <cc:Work
         rdf:about="">
        <dc:format>image/svg+xml</dc:format>
        <dc:type
           rdf:resource="http://purl.org/dc/dcmitype/StillImage" />
        <dc:title></dc:title>
      </cc:Work>
    </rdf:RDF>
  </metadata>
  <defs
     id="defs221" />
  <sodipodi:namedview
     pagecolor="#ffffff"
     bordercolor="#666666"
     borderopacity="1"
     objecttolerance="10"
     gridtolerance="10"
     guidetolerance="10"
     inkscape:pageopacity="0"
     inkscape:pageshadow="2"
     inkscape:window-width="1916"
     inkscape:window-height="1037"
     id="namedview219"
     showgrid="false"
     inkscape:zoom="1.2361274"
     inkscape:cx="532.34518"
     inkscape:cy="333.87813"
     inkscape:window-x="0"
     inkscape:window-y="20"
     inkscape:window-maximized="0"
     inkscape:current-layer="svg2" />
  <clipPath
     id="p.0">
    <path
       d="M 0,0 720,0 720,540 0,540 0,0 Z"
       id="path5"
       inkscape:connector-curvature="0"
       style="clip-rule:nonzero" />
  </clipPath>
  <g
     clip-path="url(#p.0)"
     id="g7"
     transform="translate(7.2808029,-1.18241)">
    <path
       d="m 0,0 720,0 0,540 -720,0 z"
       id="path9"
       inkscape:connector-curvature="0"
       style="fill:#000000;fill-opacity:0;fill-rule:nonzero" />
    <path
       d="m 141.33333,59.66273 80.66142,0 0,21.00787 -80.66142,0 z"
       id="path11"
       inkscape:connector-curvature="0"
       style="fill:#cfe2f3;fill-rule:nonzero" />
    <path
       d="m 141.33333,59.66273 80.66142,0 0,21.00787 -80.66142,0 z"
       id="path13"
       inkscape:connector-curvature="0"
       style="fill-rule:nonzero;stroke:#000000;stroke-width:1;stroke-linecap:butt;stroke-linejoin:round" />
    <path
       d="m 151.59895,65.39916 0,-1.906246 1.67187,0 0,1.906246 -1.67187,0 z m 0,11.6875 0,-9.859375 1.67187,0 0,9.859375 -1.67187,0 z m 4.53545,0 0,-8.546875 -1.48438,0 0,-1.3125 1.48438,0 0,-1.046875 q 0,-0.984375 0.17187,-1.46875 0.23438,-0.65625 0.84375,-1.046871 0.60938,-0.40625 1.70313,-0.40625 0.70312,0 1.5625,0.15625 l -0.25,1.468746 q -0.51563,-0.09375 -0.98438,-0.09375 -0.76562,0 -1.07812,0.328125 -0.3125,0.3125 -0.3125,1.203125 l 0,0.90625 1.92187,0 0,1.3125 -1.92187,0 0,8.546875 -1.65625,0 z m 16.71035,-3.171875 1.71875,0.21875 q -0.40625,1.5 -1.51562,2.34375 -1.09375,0.828125 -2.8125,0.828125 -2.15625,0 -3.42188,-1.328125 -1.26562,-1.328125 -1.26562,-3.734375 0,-2.484375 1.26562,-3.859375 1.28125,-1.375 3.32813,-1.375 1.98437,0 3.23437,1.34375 1.25,1.34375 1.25,3.796875 0,0.140625 -0.0156,0.4375 l -7.34375,0 q 0.0937,1.625 0.92187,2.484375 0.82813,0.859375 2.0625,0.859375 0.90625,0 1.54688,-0.46875 0.65625,-0.484375 1.04687,-1.546875 z m -5.48437,-2.703125 5.5,0 q -0.10938,-1.234375 -0.625,-1.859375 -0.79688,-0.96875 -2.07813,-0.96875 -1.14062,0 -1.9375,0.78125 -0.78125,0.765625 -0.85937,2.046875 z m 9.07884,5.875 0,-13.593746 1.67188,0 0,13.593746 -1.67188,0 z m 3.5042,-2.9375 1.65625,-0.265625 q 0.14062,1 0.76562,1.53125 0.64063,0.515625 1.78125,0.515625 1.15625,0 1.70313,-0.46875 0.5625,-0.46875 0.5625,-1.09375 0,-0.5625 -0.48438,-0.890625 -0.34375,-0.21875 -1.70312,-0.5625 -1.84375,-0.46875 -2.5625,-0.796875 -0.70313,-0.34375 -1.07813,-0.9375 -0.35937,-0.609375 -0.35937,-1.328125 0,-0.65625 0.29687,-1.21875 0.3125,-0.5625 0.82813,-0.9375 0.39062,-0.28125 1.0625,-0.484375 0.67187,-0.203125 1.4375,-0.203125 1.17187,0 2.04687,0.34375 0.875,0.328125 1.28125,0.90625 0.42188,0.5625 0.57813,1.515625 l -1.625,0.21875 q -0.10938,-0.75 -0.65625,-1.171875 -0.53125,-0.4375 -1.5,-0.4375 -1.15625,0 -1.64063,0.390625 -0.48437,0.375 -0.48437,0.875 0,0.328125 0.20312,0.59375 0.20313,0.265625 0.64063,0.4375 0.25,0.09375 1.46875,0.4375 1.76562,0.46875 2.46875,0.765625 0.70312,0.296875 1.09375,0.875 0.40625,0.578125 0.40625,1.4375 0,0.828125 -0.48438,1.578125 -0.48437,0.734375 -1.40625,1.140625 -0.92187,0.390625 -2.07812,0.390625 -1.92188,0 -2.9375,-0.796875 -1,-0.796875 -1.28125,-2.359375 z m 16.75,-0.234375 1.71875,0.21875 q -0.40625,1.5 -1.51563,2.34375 -1.09375,0.828125 -2.8125,0.828125 -2.15625,0 -3.42187,-1.328125 -1.26563,-1.328125 -1.26563,-3.734375 0,-2.484375 1.26563,-3.859375 1.28125,-1.375 3.32812,-1.375 1.98438,0 3.23438,1.34375 1.25,1.34375 1.25,3.796875 0,0.140625 -0.0156,0.4375 l -7.34375,0 q 0.0937,1.625 0.92188,2.484375 0.82812,0.859375 2.0625,0.859375 0.90625,0 1.54687,-0.46875 0.65625,-0.484375 1.04688,-1.546875 z m -5.48438,-2.703125 5.5,0 q -0.10937,-1.234375 -0.625,-1.859375 -0.79687,-0.96875 -2.07812,-0.96875 -1.14063,0 -1.9375,0.78125 -0.78125,0.765625 -0.85938,2.046875 z"
       id="path15"
       inkscape:connector-curvature="0"
       style="fill:#000000;fill-rule:nonzero" />
    <path
       d="m 72.333336,118.66142 80.661414,0 0,21.00788 -80.661414,0 z"
       id="path17"
       inkscape:connector-curvature="0"
       style="fill:#cfe2f3;fill-rule:nonzero" />
    <path
       d="m 72.333336,118.66142 80.661414,0 0,21.00788 -80.661414,0 z"
       id="path19"
       inkscape:connector-curvature="0"
       style="fill-rule:nonzero;stroke:#000000;stroke-width:1;stroke-linecap:butt;stroke-linejoin:round" />
    <path
       d="m 89.333336,132.91348 1.71875,0.21875 q -0.40625,1.5 -1.515625,2.34375 -1.09375,0.82812 -2.8125,0.82812 -2.15625,0 -3.421875,-1.32812 -1.265625,-1.32813 -1.265625,-3.73438 0,-2.48437 1.265625,-3.85938 1.28125,-1.375 3.328125,-1.375 1.984375,0 3.234375,1.34375 1.25,1.34376 1.25,3.79688 0,0.14063 -0.01563,0.4375 l -7.34375,0 q 0.09375,1.625 0.921875,2.48438 0.828125,0.85937 2.0625,0.85937 0.90625,0 1.546875,-0.46875 0.65625,-0.48437 1.046875,-1.54687 z m -5.484375,-2.70313 5.5,0 q -0.109375,-1.23437 -0.625,-1.85937 -0.796875,-0.96876 -2.078125,-0.96876 -1.140625,0 -1.9375,0.78126 -0.78125,0.76562 -0.859375,2.04687 z m 15.391342,9.65625 0,-4.82812 q -0.390625,0.54687 -1.09375,0.90625 -0.6875,0.35937 -1.484375,0.35937 -1.75,0 -3.015625,-1.39062 -1.265625,-1.40625 -1.265625,-3.84375 0,-1.48438 0.515625,-2.65625 0.515625,-1.18751 1.484375,-1.79688 0.984375,-0.60938 2.15625,-0.60938 1.828125,0 2.875,1.54688 l 0,-1.32813 1.500002,0 0,13.64064 -1.671877,0 z m -5.140625,-8.73437 q 0,1.90625 0.796875,2.85937 0.796875,0.9375 1.90625,0.9375 1.0625,0 1.828125,-0.89062 0.78125,-0.90625 0.78125,-2.76563 0,-1.95312 -0.8125,-2.95312 -0.8125,-1.00001 -1.90625,-1.00001 -1.09375,0 -1.84375,0.93751 -0.75,0.92187 -0.75,2.875 z m 15.688212,4.95312 0,-1.45312 q -1.14062,1.67187 -3.125,1.67187 -0.85937,0 -1.625,-0.32812 -0.75,-0.34375 -1.125,-0.84375 -0.35937,-0.5 -0.51562,-1.23438 -0.0937,-0.5 -0.0937,-1.5625 l 0,-6.10938 1.67187,0 0,5.46876 q 0,1.3125 0.0937,1.76562 0.15625,0.65625 0.67188,1.03125 0.51562,0.375 1.26562,0.375 0.75,0 1.40625,-0.375 0.65625,-0.39062 0.92188,-1.04687 0.28125,-0.67188 0.28125,-1.9375 l 0,-5.28126 1.67187,0 0,9.85939 -1.5,0 z m 10.3601,-1.21875 q -0.9375,0.79688 -1.79688,1.125 -0.85937,0.3125 -1.84375,0.3125 -1.60937,0 -2.48437,-0.78125 -0.875,-0.79687 -0.875,-2.03125 0,-0.73437 0.32812,-1.32812 0.32813,-0.59375 0.85938,-0.95313 0.53125,-0.35937 1.20312,-0.54687 0.5,-0.14063 1.48438,-0.25 2.03125,-0.25 2.98437,-0.57813 0,-0.34375 0,-0.4375 0,-1.01562 -0.46875,-1.4375 -0.64062,-0.5625 -1.90625,-0.5625 -1.17187,0 -1.73437,0.40625 -0.5625,0.40626 -0.82813,1.46875 l -1.64062,-0.23437 q 0.23437,-1.04688 0.73437,-1.68751 0.51563,-0.64062 1.46875,-0.98437 0.96875,-0.35938 2.25,-0.35938 1.26563,0 2.04688,0.29688 0.78125,0.29687 1.15625,0.75 0.375,0.45312 0.51562,1.14063 0.0937,0.42187 0.0937,1.53125 l 0,2.23437 q 0,2.32813 0.0937,2.95313 0.10938,0.60937 0.4375,1.17187 l -1.75,0 q -0.26562,-0.51562 -0.32812,-1.21875 z m -0.14063,-3.71875 q -0.90625,0.35938 -2.73437,0.625 -1.03125,0.14063 -1.45313,0.32813 -0.42187,0.1875 -0.65625,0.54687 -0.23437,0.35938 -0.23437,0.79688 0,0.67187 0.5,1.125 0.51562,0.4375 1.48437,0.4375 0.96875,0 1.71875,-0.42188 0.75,-0.4375 1.10938,-1.15625 0.26562,-0.57812 0.26562,-1.67187 l 0,-0.60938 z m 4.04759,4.9375 0,-13.59375 1.67188,0 0,13.59375 -1.67188,0 z"
       id="path21"
       inkscape:connector-curvature="0"
       style="fill:#000000;fill-rule:nonzero" />
    <path
       d="m 2.9908137,156.66667 102.1732263,0 0,21.00787 -102.1732263,0 z"
       id="path23"
       inkscape:connector-curvature="0"
       style="fill:#cfe2f3;fill-rule:nonzero" />
    <path
       d="m 2.9908137,156.66667 102.1732263,0 0,21.00787 -102.1732263,0 z"
       id="path25"
       inkscape:connector-curvature="0"
       style="fill-rule:nonzero;stroke:#000000;stroke-width:1;stroke-linecap:butt;stroke-linejoin:round" />
    <path
       d="m 12.943938,174.9031 1.609375,0.25 q 0.109375,0.75 0.578125,1.09375 0.609375,0.45312 1.687501,0.45312 1.171875,0 1.796875,-0.46875 0.625,-0.45312 0.859375,-1.28125 0.125,-0.51562 0.109375,-2.15625 -1.09375,1.29688 -2.71875,1.29688 -2.031251,0 -3.156251,-1.46875 -1.109375,-1.46875 -1.109375,-3.51563 0,-1.40625 0.515625,-2.59375 0.515625,-1.20312 1.484375,-1.84375 0.96875,-0.65625 2.265626,-0.65625 1.75,0 2.875,1.40625 l 0,-1.1875 1.546875,0 0,8.51563 q 0,2.3125 -0.46875,3.26562 -0.46875,0.96875 -1.484375,1.51563 -1.015625,0.5625 -2.5,0.5625 -1.765626,0 -2.859376,-0.79688 -1.078125,-0.79687 -1.03125,-2.39062 z m 1.375,-5.92188 q 0,1.95313 0.765625,2.84375 0.78125,0.89063 1.937501,0.89063 1.140625,0 1.921875,-0.89063 0.78125,-0.89062 0.78125,-2.78125 0,-1.8125 -0.8125,-2.71875 -0.796875,-0.92187 -1.921875,-0.92187 -1.109376,0 -1.890626,0.90625 -0.78125,0.89062 -0.78125,2.67187 z m 16.047592,1.9375 1.71875,0.21875 q -0.40625,1.5 -1.515625,2.34375 -1.09375,0.82813 -2.8125,0.82813 -2.15625,0 -3.421875,-1.32813 -1.265625,-1.32812 -1.265625,-3.73437 0,-2.48438 1.265625,-3.85938 1.28125,-1.375 3.328125,-1.375 1.984375,0 3.234375,1.34375 1.25,1.34375 1.25,3.79688 0,0.14062 -0.01563,0.4375 l -7.34375,0 q 0.09375,1.625 0.921875,2.48437 0.828125,0.85938 2.0625,0.85938 0.90625,0 1.546875,-0.46875 0.65625,-0.48438 1.046875,-1.54688 z m -5.484375,-2.70312 5.5,0 q -0.109375,-1.23438 -0.625,-1.85938 -0.796875,-0.96875 -2.078125,-0.96875 -1.140625,0 -1.9375,0.78125 -0.78125,0.76563 -0.859375,2.04688 z m 12.766342,4.375 0.234375,1.48437 q -0.703125,0.14063 -1.265625,0.14063 -0.90625,0 -1.40625,-0.28125 -0.5,-0.29688 -0.703125,-0.75 -0.203125,-0.46875 -0.203125,-1.98438 l 0,-5.65625 -1.234375,0 0,-1.3125 1.234375,0 0,-2.4375 1.65625,-1 0,3.4375 1.6875,0 0,1.3125 -1.6875,0 0,5.75 q 0,0.71875 0.07813,0.92188 0.09375,0.20312 0.296875,0.32812 0.203125,0.125 0.578125,0.125 0.265625,0 0.734375,-0.0781 z m -0.0042,5.28125 0,-1.21875 11.0625,0 0,1.21875 -11.0625,0 z m 11.875717,-3.78125 0,-13.59375 1.671875,0 0,13.59375 -1.671875,0 z m 3.551071,-4.92188 q 0,-2.73437 1.53125,-4.0625 1.265625,-1.09375 3.09375,-1.09375 2.03125,0 3.3125,1.34375 1.296875,1.32813 1.296875,3.67188 0,1.90625 -0.578125,3 -0.5625,1.07812 -1.65625,1.6875 -1.078125,0.59375 -2.375,0.59375 -2.0625,0 -3.34375,-1.32813 -1.28125,-1.32812 -1.28125,-3.8125 z m 1.71875,0 q 0,1.89063 0.828125,2.82813 0.828125,0.9375 2.078125,0.9375 1.25,0 2.0625,-0.9375 0.828125,-0.95313 0.828125,-2.89063 0,-1.82812 -0.828125,-2.76562 -0.828125,-0.9375 -2.0625,-0.9375 -1.25,0 -2.078125,0.9375 -0.828125,0.9375 -0.828125,2.82812 z m 15.719467,1.3125 1.640625,0.21875 q -0.265625,1.6875 -1.375,2.65625 -1.109375,0.95313 -2.734375,0.95313 -2.015625,0 -3.25,-1.3125 -1.21875,-1.32813 -1.21875,-3.79688 0,-1.59375 0.515625,-2.78125 0.53125,-1.20312 1.609375,-1.79687 1.09375,-0.60938 2.359375,-0.60938 1.609375,0 2.625,0.8125 1.015625,0.8125 1.3125,2.3125 l -1.625,0.25 q -0.234375,-1 -0.828125,-1.5 -0.59375,-0.5 -1.421875,-0.5 -1.265625,0 -2.0625,0.90625 -0.78125,0.90625 -0.78125,2.85938 0,1.98437 0.765625,2.89062 0.765625,0.89063 1.984375,0.89063 0.984375,0 1.640625,-0.59375 0.65625,-0.60938 0.84375,-1.85938 z m 9.328125,2.39063 q -0.9375,0.79687 -1.796875,1.125 -0.859375,0.3125 -1.84375,0.3125 -1.609375,0 -2.484375,-0.78125 -0.875,-0.79688 -0.875,-2.03125 0,-0.73438 0.328125,-1.32813 0.328125,-0.59375 0.859375,-0.95312 0.53125,-0.35938 1.203125,-0.54688 0.5,-0.14062 1.484375,-0.25 2.03125,-0.25 2.984375,-0.57812 0,-0.34375 0,-0.4375 0,-1.01563 -0.46875,-1.4375 -0.640625,-0.5625 -1.90625,-0.5625 -1.171875,0 -1.734375,0.40625 -0.5625,0.40625 -0.828125,1.46875 l -1.640625,-0.23438 q 0.234375,-1.04687 0.734375,-1.6875 0.515625,-0.64062 1.46875,-0.98437 0.96875,-0.35938 2.25,-0.35938 1.265625,0 2.046875,0.29688 0.78125,0.29687 1.15625,0.75 0.375,0.45312 0.515625,1.14062 0.09375,0.42188 0.09375,1.53125 l 0,2.23438 q 0,2.32812 0.09375,2.95312 0.109375,0.60938 0.4375,1.17188 l -1.75,0 q -0.265625,-0.51563 -0.328125,-1.21875 z m -0.140625,-3.71875 q -0.90625,0.35937 -2.734375,0.625 -1.03125,0.14062 -1.453125,0.32812 -0.421875,0.1875 -0.65625,0.54688 -0.234375,0.35937 -0.234375,0.79687 0,0.67188 0.5,1.125 0.515625,0.4375 1.484375,0.4375 0.96875,0 1.71875,-0.42187 0.75,-0.4375 1.109375,-1.15625 0.265625,-0.57813 0.265625,-1.67188 l 0,-0.60937 z m 4.047592,4.9375 0,-13.59375 1.671875,0 0,13.59375 -1.671875,0 z"
       id="path27"
       inkscape:connector-curvature="0"
       style="fill:#000000;fill-rule:nonzero" />
    <path
       d="m 104,13.666667 182.67715,0 0,21.007874 -182.67715,0 z"
       id="path29"
       inkscape:connector-curvature="0"
       style="fill:#cfe2f3;fill-rule:nonzero" />
    <path
       d="m 104,13.666667 182.67715,0 0,21.007874 -182.67715,0 z"
       id="path31"
       inkscape:connector-curvature="0"
       style="fill-rule:nonzero;stroke:#000000;stroke-width:1;stroke-linecap:butt;stroke-linejoin:round" />
    <path
       d="m 114.5625,31.090601 0,-13.59375 9.17188,0 0,1.59375 -7.375,0 0,4.21875 6.375,0 0,1.609375 -6.375,0 0,6.171875 -1.79688,0 z m 17.53661,0 0,-1.453125 q -1.14063,1.671875 -3.125,1.671875 -0.85938,0 -1.625,-0.328125 -0.75,-0.34375 -1.125,-0.84375 -0.35938,-0.5 -0.51563,-1.234375 -0.0937,-0.5 -0.0937,-1.5625 l 0,-6.109375 1.67188,0 0,5.46875 q 0,1.3125 0.0937,1.765625 0.15625,0.65625 0.67187,1.03125 0.51563,0.375 1.26563,0.375 0.75,0 1.40625,-0.375 0.65625,-0.390625 0.92187,-1.046875 0.28125,-0.671875 0.28125,-1.9375 l 0,-5.28125 1.67188,0 0,9.859375 -1.5,0 z m 3.92259,0 0,-9.859375 1.5,0 0,1.40625 q 1.09375,-1.625 3.14062,-1.625 0.89063,0 1.64063,0.328125 0.75,0.3125 1.10937,0.84375 0.375,0.515625 0.53125,1.21875 0.0937,0.46875 0.0937,1.625 l 0,6.0625 -1.67187,0 0,-6 q 0,-1.015625 -0.20313,-1.515625 -0.1875,-0.515625 -0.6875,-0.8125 -0.5,-0.296875 -1.17187,-0.296875 -1.0625,0 -1.84375,0.671875 -0.76563,0.671875 -0.76563,2.578125 l 0,5.375 -1.67187,0 z m 16.81322,-3.609375 1.64062,0.21875 q -0.26562,1.6875 -1.375,2.65625 -1.10937,0.953125 -2.73437,0.953125 -2.01563,0 -3.25,-1.3125 -1.21875,-1.328125 -1.21875,-3.796875 0,-1.59375 0.51562,-2.78125 0.53125,-1.203125 1.60938,-1.796875 1.09375,-0.609375 2.35937,-0.609375 1.60938,0 2.625,0.8125 1.01563,0.8125 1.3125,2.3125 l -1.625,0.25 q -0.23437,-1 -0.82812,-1.5 -0.59375,-0.5 -1.42188,-0.5 -1.26562,0 -2.0625,0.90625 -0.78125,0.90625 -0.78125,2.859375 0,1.984375 0.76563,2.890625 0.76562,0.890625 1.98437,0.890625 0.98438,0 1.64063,-0.59375 0.65625,-0.609375 0.84375,-1.859375 z m 6.54687,2.109375 0.23438,1.484375 q -0.70313,0.140625 -1.26563,0.140625 -0.90625,0 -1.40625,-0.28125 -0.5,-0.296875 -0.70312,-0.75 -0.20313,-0.46875 -0.20313,-1.984375 l 0,-5.65625 -1.23437,0 0,-1.3125 1.23437,0 0,-2.4375 1.65625,-1 0,3.4375 1.6875,0 0,1.3125 -1.6875,0 0,5.75 q 0,0.71875 0.0781,0.921875 0.0937,0.203125 0.29687,0.328125 0.20313,0.125 0.57813,0.125 0.26562,0 0.73437,-0.07813 z m 1.54268,-10.1875 0,-1.90625 1.67187,0 0,1.90625 -1.67187,0 z m 0,11.6875 0,-9.859375 1.67187,0 0,9.859375 -1.67187,0 z m 3.5042,-4.921875 q 0,-2.734375 1.53125,-4.0625 1.26562,-1.09375 3.09375,-1.09375 2.03125,0 3.3125,1.34375 1.29687,1.328125 1.29687,3.671875 0,1.90625 -0.57812,3 -0.5625,1.078125 -1.65625,1.6875 -1.07813,0.59375 -2.375,0.59375 -2.0625,0 -3.34375,-1.328125 -1.28125,-1.328125 -1.28125,-3.8125 z m 1.71875,0 q 0,1.890625 0.82812,2.828125 0.82813,0.9375 2.07813,0.9375 1.25,0 2.0625,-0.9375 0.82812,-0.953125 0.82812,-2.890625 0,-1.828125 -0.82812,-2.765625 -0.82813,-0.9375 -2.0625,-0.9375 -1.25,0 -2.07813,0.9375 -0.82812,0.9375 -0.82812,2.828125 z m 9.28196,4.921875 0,-9.859375 1.5,0 0,1.40625 q 1.09375,-1.625 3.14063,-1.625 0.89062,0 1.64062,0.328125 0.75,0.3125 1.10938,0.84375 0.375,0.515625 0.53125,1.21875 0.0937,0.46875 0.0937,1.625 l 0,6.0625 -1.67188,0 0,-6 q 0,-1.015625 -0.20312,-1.515625 -0.1875,-0.515625 -0.6875,-0.8125 -0.5,-0.296875 -1.17188,-0.296875 -1.0625,0 -1.84375,0.671875 -0.76562,0.671875 -0.76562,2.578125 l 0,5.375 -1.67188,0 z m 15.96527,0 0,-8.546875 -1.48437,0 0,-1.3125 1.48437,0 0,-1.046875 q 0,-0.984375 0.17188,-1.46875 0.23437,-0.65625 0.84375,-1.046875 0.60937,-0.40625 1.70312,-0.40625 0.70313,0 1.5625,0.15625 l -0.25,1.46875 q -0.51562,-0.09375 -0.98437,-0.09375 -0.76563,0 -1.07813,0.328125 -0.3125,0.3125 -0.3125,1.203125 l 0,0.90625 1.92188,0 0,1.3125 -1.92188,0 0,8.546875 -1.65625,0 z m 11.21456,-1.21875 q -0.9375,0.796875 -1.79688,1.125 -0.85937,0.3125 -1.84375,0.3125 -1.60937,0 -2.48437,-0.78125 -0.875,-0.796875 -0.875,-2.03125 0,-0.734375 0.32812,-1.328125 0.32813,-0.59375 0.85938,-0.953125 0.53125,-0.359375 1.20312,-0.546875 0.5,-0.140625 1.48438,-0.25 2.03125,-0.25 2.98437,-0.578125 0,-0.34375 0,-0.4375 0,-1.015625 -0.46875,-1.4375 -0.64062,-0.5625 -1.90625,-0.5625 -1.17187,0 -1.73437,0.40625 -0.5625,0.40625 -0.82813,1.46875 l -1.64062,-0.234375 q 0.23437,-1.046875 0.73437,-1.6875 0.51563,-0.640625 1.46875,-0.984375 0.96875,-0.359375 2.25,-0.359375 1.26563,0 2.04688,0.296875 0.78125,0.296875 1.15625,0.75 0.375,0.453125 0.51562,1.140625 0.0937,0.421875 0.0937,1.53125 l 0,2.234375 q 0,2.328125 0.0937,2.953125 0.10938,0.609375 0.4375,1.171875 l -1.75,0 q -0.26562,-0.515625 -0.32812,-1.21875 z m -0.14063,-3.71875 q -0.90625,0.359375 -2.73437,0.625 -1.03125,0.140625 -1.45313,0.328125 -0.42187,0.1875 -0.65625,0.546875 -0.23437,0.359375 -0.23437,0.796875 0,0.671875 0.5,1.125 0.51562,0.4375 1.48437,0.4375 0.96875,0 1.71875,-0.421875 0.75,-0.4375 1.10938,-1.15625 0.26562,-0.578125 0.26562,-1.671875 l 0,-0.609375 z m 10.51634,1.328125 1.64063,0.21875 q -0.26563,1.6875 -1.375,2.65625 -1.10938,0.953125 -2.73438,0.953125 -2.01562,0 -3.25,-1.3125 -1.21875,-1.328125 -1.21875,-3.796875 0,-1.59375 0.51563,-2.78125 0.53125,-1.203125 1.60937,-1.796875 1.09375,-0.609375 2.35938,-0.609375 1.60937,0 2.625,0.8125 1.01562,0.8125 1.3125,2.3125 l -1.625,0.25 q -0.23438,-1 -0.82813,-1.5 -0.59375,-0.5 -1.42187,-0.5 -1.26563,0 -2.0625,0.90625 -0.78125,0.90625 -0.78125,2.859375 0,1.984375 0.76562,2.890625 0.76563,0.890625 1.98438,0.890625 0.98437,0 1.64062,-0.59375 0.65625,-0.609375 0.84375,-1.859375 z m 6.54688,2.109375 0.23437,1.484375 q -0.70312,0.140625 -1.26562,0.140625 -0.90625,0 -1.40625,-0.28125 -0.5,-0.296875 -0.70313,-0.75 -0.20312,-0.46875 -0.20312,-1.984375 l 0,-5.65625 -1.23438,0 0,-1.3125 1.23438,0 0,-2.4375 1.65625,-1 0,3.4375 1.6875,0 0,1.3125 -1.6875,0 0,5.75 q 0,0.71875 0.0781,0.921875 0.0937,0.203125 0.29688,0.328125 0.20312,0.125 0.57812,0.125 0.26563,0 0.73438,-0.07813 z m 0.90205,-3.421875 q 0,-2.734375 1.53125,-4.0625 1.26563,-1.09375 3.09375,-1.09375 2.03125,0 3.3125,1.34375 1.29688,1.328125 1.29688,3.671875 0,1.90625 -0.57813,3 -0.5625,1.078125 -1.65625,1.6875 -1.07812,0.59375 -2.375,0.59375 -2.0625,0 -3.34375,-1.328125 -1.28125,-1.328125 -1.28125,-3.8125 z m 1.71875,0 q 0,1.890625 0.82813,2.828125 0.82812,0.9375 2.07812,0.9375 1.25,0 2.0625,-0.9375 0.82813,-0.953125 0.82813,-2.890625 0,-1.828125 -0.82813,-2.765625 -0.82812,-0.9375 -2.0625,-0.9375 -1.25,0 -2.07812,0.9375 -0.82813,0.9375 -0.82813,2.828125 z m 9.26635,4.921875 0,-9.859375 1.5,0 0,1.5 q 0.57812,-1.046875 1.0625,-1.375 0.48437,-0.34375 1.07812,-0.34375 0.84375,0 1.71875,0.546875 l -0.57812,1.546875 q -0.60938,-0.359375 -1.23438,-0.359375 -0.54687,0 -0.98437,0.328125 -0.42188,0.328125 -0.60938,0.90625 -0.28125,0.890625 -0.28125,1.953125 l 0,5.15625 -1.67187,0 z m 6.24392,-11.6875 0,-1.90625 1.67188,0 0,1.90625 -1.67188,0 z m 0,11.6875 0,-9.859375 1.67188,0 0,9.859375 -1.67188,0 z m 10.5667,-1.21875 q -0.9375,0.796875 -1.79688,1.125 -0.85937,0.3125 -1.84375,0.3125 -1.60937,0 -2.48437,-0.78125 -0.875,-0.796875 -0.875,-2.03125 0,-0.734375 0.32812,-1.328125 0.32813,-0.59375 0.85938,-0.953125 0.53125,-0.359375 1.20312,-0.546875 0.5,-0.140625 1.48438,-0.25 2.03125,-0.25 2.98437,-0.578125 0,-0.34375 0,-0.4375 0,-1.015625 -0.46875,-1.4375 -0.64062,-0.5625 -1.90625,-0.5625 -1.17187,0 -1.73437,0.40625 -0.5625,0.40625 -0.82813,1.46875 l -1.64062,-0.234375 q 0.23437,-1.046875 0.73437,-1.6875 0.51563,-0.640625 1.46875,-0.984375 0.96875,-0.359375 2.25,-0.359375 1.26563,0 2.04688,0.296875 0.78125,0.296875 1.15625,0.75 0.375,0.453125 0.51562,1.140625 0.0937,0.421875 0.0937,1.53125 l 0,2.234375 q 0,2.328125 0.0937,2.953125 0.10938,0.609375 0.4375,1.171875 l -1.75,0 q -0.26562,-0.515625 -0.32812,-1.21875 z m -0.14063,-3.71875 q -0.90625,0.359375 -2.73437,0.625 -1.03125,0.140625 -1.45313,0.328125 -0.42187,0.1875 -0.65625,0.546875 -0.23437,0.359375 -0.23437,0.796875 0,0.671875 0.5,1.125 0.51562,0.4375 1.48437,0.4375 0.96875,0 1.71875,-0.421875 0.75,-0.4375 1.10938,-1.15625 0.26562,-0.578125 0.26562,-1.671875 l 0,-0.609375 z m 4.0476,4.9375 0,-13.59375 1.67187,0 0,13.59375 -1.67187,0 z"
       id="path33"
       inkscape:connector-curvature="0"
       style="fill:#000000;fill-rule:nonzero" />
    <path
       d="m -0.00131234,202.66667 108.15748234,0 0,21.00787 -108.15748234,0 z"
       id="path35"
       inkscape:connector-curvature="0"
       style="fill:#cfe2f3;fill-rule:nonzero" />
    <path
       d="m -0.00131234,202.66667 108.15748234,0 0,21.00787 -108.15748234,0 z"
       id="path37"
       inkscape:connector-curvature="0"
       style="fill-rule:nonzero;stroke:#000000;stroke-width:1;stroke-linecap:butt;stroke-linejoin:round" />
    <path
       d="m 10.264313,208.4031 0,-1.90625 1.671875,0 0,1.90625 -1.671875,0 z m 0,11.6875 0,-9.85938 1.671875,0 0,9.85938 -1.671875,0 z m 4.129196,0 0,-9.85938 1.5,0 0,1.40625 q 1.09375,-1.625 3.140625,-1.625 0.890625,0 1.640625,0.32813 0.75,0.3125 1.109375,0.84375 0.375,0.51562 0.53125,1.21875 0.09375,0.46875 0.09375,1.625 l 0,6.0625 -1.671875,0 0,-6 q 0,-1.01563 -0.203125,-1.51563 -0.1875,-0.51562 -0.6875,-0.8125 -0.5,-0.29687 -1.171875,-0.29687 -1.0625,0 -1.84375,0.67187 -0.765625,0.67188 -0.765625,2.57813 l 0,5.375 -1.671875,0 z m 16.766342,0 0,-1.25 q -0.9375,1.46875 -2.75,1.46875 -1.171875,0 -2.171875,-0.64063 -0.984375,-0.65625 -1.53125,-1.8125 -0.53125,-1.17187 -0.53125,-2.6875 0,-1.46875 0.484375,-2.67187 0.5,-1.20313 1.46875,-1.84375 0.984375,-0.64063 2.203125,-0.64063 0.890625,0 1.578125,0.375 0.703125,0.375 1.140625,0.98438 l 0,-4.875 1.65625,0 0,13.59375 -1.546875,0 z m -5.28125,-4.92188 q 0,1.89063 0.796875,2.82813 0.8125,0.9375 1.890625,0.9375 1.09375,0 1.859375,-0.89063 0.765625,-0.89062 0.765625,-2.73437 0,-2.01563 -0.78125,-2.95313 -0.78125,-0.95312 -1.921875,-0.95312 -1.109375,0 -1.859375,0.90625 -0.75,0.90625 -0.75,2.85937 z m 16.016342,1.75 1.71875,0.21875 q -0.40625,1.5 -1.515625,2.34375 -1.09375,0.82813 -2.8125,0.82813 -2.15625,0 -3.421875,-1.32813 -1.265625,-1.32812 -1.265625,-3.73437 0,-2.48438 1.265625,-3.85938 1.28125,-1.375 3.328125,-1.375 1.984375,0 3.234375,1.34375 1.25,1.34375 1.25,3.79688 0,0.14062 -0.01563,0.4375 l -7.34375,0 q 0.09375,1.625 0.921875,2.48437 0.828125,0.85938 2.0625,0.85938 0.90625,0 1.546875,-0.46875 0.65625,-0.48438 1.046875,-1.54688 z m -5.484375,-2.70312 5.5,0 q -0.109375,-1.23438 -0.625,-1.85938 -0.796875,-0.96875 -2.078125,-0.96875 -1.140625,0 -1.9375,0.78125 -0.78125,0.76563 -0.859375,2.04688 z m 8.000717,5.875 3.59375,-5.125 -3.328125,-4.73438 2.09375,0 1.515625,2.3125 q 0.421875,0.65625 0.671875,1.10938 0.421875,-0.60938 0.765625,-1.09375 l 1.65625,-2.32813 1.984375,0 -3.390625,4.64063 3.65625,5.21875 -2.046875,0 -2.03125,-3.0625 -0.53125,-0.82813 -2.59375,3.89063 -2.015625,0 z m 22.116608,-11.3125 0,1.9375 -1.796875,0 0,-1.53125 q 0,-1.25 0.296875,-1.79688 0.390625,-0.75 1.234375,-1.125 l 0.40625,0.64063 q -0.5,0.21875 -0.75,0.64062 -0.234375,0.42188 -0.265625,1.23438 l 0.875,0 z m 2.875,0 0,1.9375 -1.796875,0 0,-1.53125 q 0,-1.25 0.296875,-1.79688 0.390625,-0.75 1.234375,-1.125 l 0.40625,0.64063 q -0.5,0.21875 -0.75,0.64062 -0.234375,0.42188 -0.265625,1.23438 l 0.875,0 z m 5.509552,13.26562 0,-1.67187 q -1.25,-0.15625 -2.046875,-0.54688 -0.78125,-0.40625 -1.359375,-1.3125 -0.5625,-0.90625 -0.65625,-2.20312 l 1.6875,-0.3125 q 0.1875,1.34375 0.6875,1.98437 0.703125,0.89063 1.6875,0.98438 l 0,-5.3125 q -1.03125,-0.20313 -2.109375,-0.79688 -0.796875,-0.45312 -1.234375,-1.23437 -0.421875,-0.79688 -0.421875,-1.79688 0,-1.78125 1.265625,-2.875 0.84375,-0.75 2.5,-0.92187 l 0,-0.79688 0.984375,0 0,0.79688 q 1.453125,0.14062 2.3125,0.85937 1.09375,0.90625 1.3125,2.5 l -1.734375,0.25 q -0.140625,-0.98437 -0.609375,-1.5 -0.46875,-0.53125 -1.28125,-0.6875 l 0,4.8125 q 1.265625,0.3125 1.671875,0.48438 0.78125,0.34375 1.265625,0.84375 0.484375,0.48437 0.75,1.17187 0.265625,0.67188 0.265625,1.45313 0,1.73437 -1.109375,2.90625 -1.09375,1.15625 -2.84375,1.23437 l 0,1.6875 -0.984375,0 z m 0,-14.60937 q -0.984375,0.14062 -1.546875,0.78125 -0.546875,0.625 -0.546875,1.48437 0,0.85938 0.46875,1.4375 0.484375,0.5625 1.625,0.90625 l 0,-4.60937 z m 0.984375,11.53125 q 0.96875,-0.125 1.59375,-0.84375 0.640625,-0.71875 0.640625,-1.78125 0,-0.92188 -0.453125,-1.46875 -0.4375,-0.54688 -1.78125,-0.98438 l 0,5.07813 z m 5.922592,-10.5625 0,-1.90625 1.671875,0 0,1.90625 -1.671875,0 z m 0,11.6875 0,-9.85938 1.671875,0 0,9.85938 -1.671875,0 z m 5.441696,-11.3125 0,1.9375 -1.796875,0 0,-1.53125 q 0,-1.25 0.296875,-1.79688 0.390625,-0.75 1.234375,-1.125 l 0.40625,0.64063 q -0.5,0.21875 -0.75,0.64062 -0.234375,0.42188 -0.265625,1.23438 l 0.875,0 z m 2.875,0 0,1.9375 -1.796875,0 0,-1.53125 q 0,-1.25 0.296875,-1.79688 0.390625,-0.75 1.234375,-1.125 l 0.40625,0.64063 q -0.5,0.21875 -0.75,0.64062 -0.234375,0.42188 -0.265625,1.23438 l 0.875,0 z"
       id="path39"
       inkscape:connector-curvature="0"
       style="fill:#000000;fill-rule:nonzero" />
    <path
       d="m 123.15617,156.66667 72.00001,0 0,21.00787 -72.00001,0 z"
       id="path41"
       inkscape:connector-curvature="0"
       style="fill:#cfe2f3;fill-rule:nonzero" />
    <path
       d="m 123.15617,156.66667 72.00001,0 0,21.00787 -72.00001,0 z"
       id="path43"
       inkscape:connector-curvature="0"
       style="fill-rule:nonzero;stroke:#000000;stroke-width:1;stroke-linecap:butt;stroke-linejoin:round" />
    <path
       d="m 139.84367,170.48123 1.64062,0.21875 q -0.26562,1.6875 -1.375,2.65625 -1.10937,0.95312 -2.73437,0.95312 -2.01563,0 -3.25,-1.3125 -1.21875,-1.32812 -1.21875,-3.79687 0,-1.59375 0.51562,-2.78125 0.53125,-1.20313 1.60938,-1.79688 1.09375,-0.60937 2.35937,-0.60937 1.60938,0 2.625,0.8125 1.01563,0.8125 1.3125,2.3125 l -1.625,0.25 q -0.23437,-1 -0.82812,-1.5 -0.59375,-0.5 -1.42188,-0.5 -1.26562,0 -2.0625,0.90625 -0.78125,0.90625 -0.78125,2.85937 0,1.98438 0.76563,2.89063 0.76562,0.89062 1.98437,0.89062 0.98438,0 1.64063,-0.59375 0.65625,-0.60937 0.84375,-1.85937 z m 2.26562,-1.3125 q 0,-2.73438 1.53125,-4.0625 1.26563,-1.09375 3.09375,-1.09375 2.03125,0 3.3125,1.34375 1.29688,1.32812 1.29688,3.67187 0,1.90625 -0.57813,3 -0.5625,1.07813 -1.65625,1.6875 -1.07812,0.59375 -2.375,0.59375 -2.0625,0 -3.34375,-1.32812 -1.28125,-1.32813 -1.28125,-3.8125 z m 1.71875,0 q 0,1.89062 0.82813,2.82812 0.82812,0.9375 2.07812,0.9375 1.25,0 2.0625,-0.9375 0.82813,-0.95312 0.82813,-2.89062 0,-1.82813 -0.82813,-2.76563 -0.82812,-0.9375 -2.0625,-0.9375 -1.25,0 -2.07812,0.9375 -0.82813,0.9375 -0.82813,2.82813 z m 9.28197,4.92187 0,-9.85937 1.5,0 0,1.40625 q 1.09375,-1.625 3.14063,-1.625 0.89062,0 1.64062,0.32812 0.75,0.3125 1.10938,0.84375 0.375,0.51563 0.53125,1.21875 0.0937,0.46875 0.0937,1.625 l 0,6.0625 -1.67188,0 0,-6 q 0,-1.01562 -0.20312,-1.51562 -0.1875,-0.51563 -0.6875,-0.8125 -0.5,-0.29688 -1.17188,-0.29688 -1.0625,0 -1.84375,0.67188 -0.76562,0.67187 -0.76562,2.57812 l 0,5.375 -1.67188,0 z m 9.70384,-2.9375 1.65625,-0.26562 q 0.14063,1 0.76563,1.53125 0.64062,0.51562 1.78125,0.51562 1.15625,0 1.70312,-0.46875 0.5625,-0.46875 0.5625,-1.09375 0,-0.5625 -0.48437,-0.89062 -0.34375,-0.21875 -1.70313,-0.5625 -1.84375,-0.46875 -2.5625,-0.79688 -0.70312,-0.34375 -1.07812,-0.9375 -0.35938,-0.60937 -0.35938,-1.32812 0,-0.65625 0.29688,-1.21875 0.3125,-0.5625 0.82812,-0.9375 0.39063,-0.28125 1.0625,-0.48438 0.67188,-0.20312 1.4375,-0.20312 1.17188,0 2.04688,0.34375 0.875,0.32812 1.28125,0.90625 0.42187,0.5625 0.57812,1.51562 l -1.625,0.21875 q -0.10937,-0.75 -0.65625,-1.17187 -0.53125,-0.4375 -1.5,-0.4375 -1.15625,0 -1.64062,0.39062 -0.48438,0.375 -0.48438,0.875 0,0.32813 0.20313,0.59375 0.20312,0.26563 0.64062,0.4375 0.25,0.0937 1.46875,0.4375 1.76563,0.46875 2.46875,0.76563 0.70313,0.29687 1.09375,0.875 0.40625,0.57812 0.40625,1.4375 0,0.82812 -0.48437,1.57812 -0.48438,0.73438 -1.40625,1.14063 -0.92188,0.39062 -2.07813,0.39062 -1.92187,0 -2.9375,-0.79687 -1,-0.79688 -1.28125,-2.35938 z m 13.65625,1.4375 0.23438,1.48438 q -0.70313,0.14062 -1.26563,0.14062 -0.90625,0 -1.40625,-0.28125 -0.5,-0.29687 -0.70312,-0.75 -0.20313,-0.46875 -0.20313,-1.98437 l 0,-5.65625 -1.23437,0 0,-1.3125 1.23437,0 0,-2.4375 1.65625,-1 0,3.4375 1.6875,0 0,1.3125 -1.6875,0 0,5.75 q 0,0.71875 0.0781,0.92187 0.0937,0.20313 0.29687,0.32813 0.20313,0.125 0.57813,0.125 0.26562,0 0.73437,-0.0781 z"
       id="path45"
       inkscape:connector-curvature="0"
       style="fill:#000000;fill-rule:nonzero" />
    <path
       d="m 123.15707,202.66667 72,0 0,21.00787 -72,0 z"
       id="path47"
       inkscape:connector-curvature="0"
       style="fill:#cfe2f3;fill-rule:nonzero" />
    <path
       d="m 123.15707,202.66667 72,0 0,21.00787 -72,0 z"
       id="path49"
       inkscape:connector-curvature="0"
       style="fill-rule:nonzero;stroke:#000000;stroke-width:1;stroke-linecap:butt;stroke-linejoin:round" />
    <path
       d="m 133.37582,209.0906 0,-13.59375 1.67187,0 0,13.59375 -1.67187,0 z m 4.1917,-11.6875 0,-1.90625 1.67187,0 0,1.90625 -1.67187,0 z m 0,11.6875 0,-9.85938 1.67187,0 0,9.85938 -1.67187,0 z m 7.78544,-1.5 0.23438,1.48437 q -0.70313,0.14063 -1.26563,0.14063 -0.90625,0 -1.40625,-0.28125 -0.5,-0.29688 -0.70312,-0.75 -0.20313,-0.46875 -0.20313,-1.98438 l 0,-5.65625 -1.23437,0 0,-1.3125 1.23437,0 0,-2.4375 1.65625,-1 0,3.4375 1.6875,0 0,1.3125 -1.6875,0 0,5.75 q 0,0.71875 0.0781,0.92188 0.0937,0.20312 0.29687,0.32812 0.20313,0.125 0.57813,0.125 0.26562,0 0.73437,-0.0781 z m 8.27706,-1.67188 1.71875,0.21875 q -0.40625,1.5 -1.51563,2.34375 -1.09375,0.82813 -2.8125,0.82813 -2.15625,0 -3.42187,-1.32813 -1.26563,-1.32812 -1.26563,-3.73437 0,-2.48438 1.26563,-3.85938 1.28125,-1.375 3.32812,-1.375 1.98438,0 3.23438,1.34375 1.25,1.34375 1.25,3.79688 0,0.14062 -0.0156,0.4375 l -7.34375,0 q 0.0937,1.625 0.92188,2.48437 0.82812,0.85938 2.0625,0.85938 0.90625,0 1.54687,-0.46875 0.65625,-0.48438 1.04688,-1.54688 z m -5.48438,-2.70312 5.5,0 q -0.10937,-1.23438 -0.625,-1.85938 -0.79687,-0.96875 -2.07812,-0.96875 -1.14063,0 -1.9375,0.78125 -0.78125,0.76563 -0.85938,2.04688 z m 9.09447,5.875 0,-9.85938 1.5,0 0,1.5 q 0.57812,-1.04687 1.0625,-1.375 0.48437,-0.34375 1.07812,-0.34375 0.84375,0 1.71875,0.54688 l -0.57812,1.54687 q -0.60938,-0.35937 -1.23438,-0.35937 -0.54687,0 -0.98437,0.32812 -0.42188,0.32813 -0.60938,0.90625 -0.28125,0.89063 -0.28125,1.95313 l 0,5.15625 -1.67187,0 z m 12.6658,-1.21875 q -0.9375,0.79687 -1.79688,1.125 -0.85937,0.3125 -1.84375,0.3125 -1.60937,0 -2.48437,-0.78125 -0.875,-0.79688 -0.875,-2.03125 0,-0.73438 0.32812,-1.32813 0.32813,-0.59375 0.85938,-0.95312 0.53125,-0.35938 1.20312,-0.54688 0.5,-0.14062 1.48438,-0.25 2.03125,-0.25 2.98437,-0.57812 0,-0.34375 0,-0.4375 0,-1.01563 -0.46875,-1.4375 -0.64062,-0.5625 -1.90625,-0.5625 -1.17187,0 -1.73437,0.40625 -0.5625,0.40625 -0.82813,1.46875 l -1.64062,-0.23438 q 0.23437,-1.04687 0.73437,-1.6875 0.51563,-0.64062 1.46875,-0.98437 0.96875,-0.35938 2.25,-0.35938 1.26563,0 2.04688,0.29688 0.78125,0.29687 1.15625,0.75 0.375,0.45312 0.51562,1.14062 0.0937,0.42188 0.0937,1.53125 l 0,2.23438 q 0,2.32812 0.0937,2.95312 0.10938,0.60938 0.4375,1.17188 l -1.75,0 q -0.26562,-0.51563 -0.32812,-1.21875 z m -0.14063,-3.71875 q -0.90625,0.35937 -2.73437,0.625 -1.03125,0.14062 -1.45313,0.32812 -0.42187,0.1875 -0.65625,0.54688 -0.23437,0.35937 -0.23437,0.79687 0,0.67188 0.5,1.125 0.51562,0.4375 1.48437,0.4375 0.96875,0 1.71875,-0.42187 0.75,-0.4375 1.10938,-1.15625 0.26562,-0.57813 0.26562,-1.67188 l 0,-0.60937 z m 4.0476,4.9375 0,-13.59375 1.67187,0 0,13.59375 -1.67187,0 z"
       id="path51"
       inkscape:connector-curvature="0"
       style="fill:#000000;fill-rule:nonzero" />
    <path
       d="m 134.71957,219.7781 0,1.9375 -1.79688,0 0,-1.53125 q 0,-1.25 0.29688,-1.79688 0.39062,-0.75 1.23437,-1.125 l 0.40625,0.64063 q -0.5,0.21875 -0.75,0.64062 -0.23437,0.42188 -0.26562,1.23438 l 0.875,0 z m 2.875,0 0,1.9375 -1.79688,0 0,-1.53125 q 0,-1.25 0.29688,-1.79688 0.39062,-0.75 1.23437,-1.125 l 0.40625,0.64063 q -0.5,0.21875 -0.75,0.64062 -0.23437,0.42188 -0.26562,1.23438 l 0.875,0 z m 1.55643,4.60937 q 0,-2.42187 0.5,-3.89062 0.5,-1.46875 1.46875,-2.26563 0.98437,-0.79687 2.46875,-0.79687 1.09375,0 1.92187,0.4375 0.82813,0.4375 1.35938,1.28125 0.54687,0.82812 0.84375,2.01562 0.3125,1.1875 0.3125,3.21875 0,2.39063 -0.5,3.85938 -0.48438,1.46875 -1.46875,2.28125 -0.96875,0.79687 -2.46875,0.79687 -1.96875,0 -3.07813,-1.40625 -1.35937,-1.70312 -1.35937,-5.53125 z m 1.71875,0 q 0,3.34375 0.78125,4.45313 0.79687,1.10937 1.9375,1.10937 1.15625,0 1.9375,-1.10937 0.78125,-1.125 0.78125,-4.45313 0,-3.35937 -0.78125,-4.46875 -0.78125,-1.10937 -1.95313,-1.10937 -1.15625,0 -1.82812,0.98437 -0.875,1.23438 -0.875,4.59375 z m 8.68821,-5.09375 0,-1.9375 1.78125,0 0,1.53125 q 0,1.23438 -0.28125,1.78125 -0.40625,0.75 -1.25,1.14063 l -0.40625,-0.67188 q 0.5,-0.20312 0.75,-0.64062 0.25,-0.4375 0.26563,-1.20313 l -0.85938,0 z m 2.875,0 0,-1.9375 1.78125,0 0,1.53125 q 0,1.23438 -0.28125,1.78125 -0.40625,0.75 -1.25,1.14063 l -0.40625,-0.67188 q 0.5,-0.20312 0.75,-0.64062 0.25,-0.4375 0.28125,-1.20313 l -0.875,0 z"
       id="path53"
       inkscape:connector-curvature="0"
       style="fill:#000000;fill-rule:nonzero" />
    <path
       d="m 235.16798,118.66142 71.99998,0 0,21.00788 -71.99998,0 z"
       id="path55"
       inkscape:connector-curvature="0"
       style="fill:#cfe2f3;fill-rule:nonzero" />
    <path
       d="m 235.16798,118.66142 71.99998,0 0,21.00788 -71.99998,0 z"
       id="path57"
       inkscape:connector-curvature="0"
       style="fill-rule:nonzero;stroke:#000000;stroke-width:1;stroke-linecap:butt;stroke-linejoin:round" />
    <path
       d="m 251.85548,132.47598 1.64062,0.21875 q -0.26562,1.6875 -1.375,2.65625 -1.10937,0.95312 -2.73437,0.95312 -2.01563,0 -3.25,-1.3125 -1.21875,-1.32812 -1.21875,-3.79687 0,-1.59375 0.51562,-2.78125 0.53125,-1.20313 1.60938,-1.79688 1.09375,-0.60938 2.35937,-0.60938 1.60938,0 2.625,0.8125 1.01563,0.8125 1.3125,2.31251 l -1.625,0.25 q -0.23437,-1 -0.82812,-1.50001 -0.59375,-0.5 -1.42188,-0.5 -1.26562,0 -2.0625,0.90626 -0.78125,0.90625 -0.78125,2.85937 0,1.98438 0.76563,2.89063 0.76562,0.89062 1.98437,0.89062 0.98438,0 1.64063,-0.59375 0.65625,-0.60937 0.84375,-1.85937 z m 2.26562,-1.3125 q 0,-2.73438 1.53125,-4.06251 1.26561,-1.09375 3.09374,-1.09375 2.03125,0 3.3125,1.34375 1.29687,1.32813 1.29687,3.67188 0,1.90625 -0.57812,3 -0.5625,1.07813 -1.65625,1.6875 -1.07813,0.59375 -2.375,0.59375 -2.0625,0 -3.34373,-1.32812 -1.28125,-1.32813 -1.28125,-3.8125 z m 1.71875,0 q 0,1.89062 0.82811,2.82812 0.82813,0.9375 2.07813,0.9375 1.25,0 2.0625,-0.9375 0.82812,-0.95312 0.82812,-2.89062 0,-1.82813 -0.82812,-2.76563 -0.82813,-0.9375 -2.0625,-0.9375 -1.25,0 -2.07813,0.9375 -0.82811,0.9375 -0.82811,2.82813 z m 9.28197,4.92187 0,-9.85938 1.5,0 0,1.40625 q 1.09375,-1.625 3.14063,-1.625 0.89062,0 1.64062,0.32813 0.75,0.3125 1.10938,0.84375 0.375,0.51562 0.53125,1.21875 0.0937,0.46875 0.0937,1.625 l 0,6.0625 -1.67188,0 0,-6 q 0,-1.01562 -0.20312,-1.51562 -0.1875,-0.51563 -0.6875,-0.81251 -0.5,-0.29687 -1.17188,-0.29687 -1.0625,0 -1.84375,0.67188 -0.76562,0.67187 -0.76562,2.57812 l 0,5.375 -1.67188,0 z m 9.70383,-2.9375 1.65625,-0.26562 q 0.14062,1 0.76562,1.53125 0.64063,0.51562 1.78125,0.51562 1.15625,0 1.70313,-0.46875 0.5625,-0.46875 0.5625,-1.09375 0,-0.5625 -0.48438,-0.89062 -0.34375,-0.21875 -1.70312,-0.5625 -1.84375,-0.46875 -2.5625,-0.79688 -0.70313,-0.34375 -1.07813,-0.9375 -0.35937,-0.60937 -0.35937,-1.32812 0,-0.65625 0.29687,-1.21876 0.3125,-0.5625 0.82813,-0.9375 0.39062,-0.28125 1.0625,-0.48437 0.67187,-0.20313 1.4375,-0.20313 1.17187,0 2.04687,0.34375 0.875,0.32813 1.28125,0.90625 0.42188,0.5625 0.57813,1.51563 l -1.625,0.21875 q -0.10938,-0.75 -0.65625,-1.17188 -0.53125,-0.4375 -1.5,-0.4375 -1.15625,0 -1.64063,0.39063 -0.48437,0.37501 -0.48437,0.875 0,0.32813 0.20312,0.59375 0.20313,0.26563 0.64063,0.4375 0.25,0.0937 1.46875,0.4375 1.76562,0.46875 2.46875,0.76563 0.70312,0.29687 1.09375,0.875 0.40625,0.57812 0.40625,1.4375 0,0.82812 -0.48438,1.57812 -0.48437,0.73438 -1.40625,1.14063 -0.92187,0.39062 -2.07812,0.39062 -1.92188,0 -2.9375,-0.79687 -1,-0.79688 -1.28125,-2.35938 z m 13.65625,1.4375 0.23437,1.48438 q -0.70312,0.14062 -1.26562,0.14062 -0.90625,0 -1.40625,-0.28125 -0.5,-0.29687 -0.70313,-0.75 -0.20312,-0.46875 -0.20312,-1.98437 l 0,-5.65626 -1.23438,0 0,-1.3125 1.23438,0 0,-2.4375 1.65625,-1 0,3.4375 1.6875,0 0,1.3125 -1.6875,0 0,5.75001 q 0,0.71875 0.0781,0.92187 0.0937,0.20313 0.29688,0.32813 0.20312,0.125 0.57812,0.125 0.26563,0 0.73438,-0.0781 z"
       id="path59"
       inkscape:connector-curvature="0"
       style="fill:#000000;fill-rule:nonzero" />
    <path
       d="m 225.3307,156.66667 102.17323,0 0,21.00787 -102.17323,0 z"
       id="path61"
       inkscape:connector-curvature="0"
       style="fill:#cfe2f3;fill-rule:nonzero" />
    <path
       d="m 225.3307,156.66667 102.17323,0 0,21.00787 -102.17323,0 z"
       id="path63"
       inkscape:connector-curvature="0"
       style="fill-rule:nonzero;stroke:#000000;stroke-width:1;stroke-linecap:butt;stroke-linejoin:round" />
    <path
       d="m 235.54945,174.0906 0,-13.59375 1.67187,0 0,13.59375 -1.67187,0 z m 4.1917,-11.6875 0,-1.90625 1.67187,0 0,1.90625 -1.67187,0 z m 0,11.6875 0,-9.85938 1.67187,0 0,9.85938 -1.67187,0 z m 7.78544,-1.5 0.23438,1.48437 q -0.70313,0.14063 -1.26563,0.14063 -0.90625,0 -1.40625,-0.28125 -0.5,-0.29688 -0.70312,-0.75 -0.20313,-0.46875 -0.20313,-1.98438 l 0,-5.65625 -1.23437,0 0,-1.3125 1.23437,0 0,-2.4375 1.65625,-1 0,3.4375 1.6875,0 0,1.3125 -1.6875,0 0,5.75 q 0,0.71875 0.0781,0.92188 0.0937,0.20312 0.29687,0.32812 0.20313,0.125 0.57813,0.125 0.26562,0 0.73437,-0.0781 z m 8.27706,-1.67188 1.71875,0.21875 q -0.40625,1.5 -1.51563,2.34375 -1.09375,0.82813 -2.8125,0.82813 -2.15625,0 -3.42187,-1.32813 -1.26563,-1.32812 -1.26563,-3.73437 0,-2.48438 1.26563,-3.85938 1.28125,-1.375 3.32812,-1.375 1.98438,0 3.23438,1.34375 1.25,1.34375 1.25,3.79688 0,0.14062 -0.0156,0.4375 l -7.34375,0 q 0.0937,1.625 0.92188,2.48437 0.82812,0.85938 2.0625,0.85938 0.90625,0 1.54687,-0.46875 0.65625,-0.48438 1.04688,-1.54688 z m -5.48438,-2.70312 5.5,0 q -0.10937,-1.23438 -0.625,-1.85938 -0.79687,-0.96875 -2.07812,-0.96875 -1.14063,0 -1.9375,0.78125 -0.78125,0.76563 -0.85938,2.04688 z m 9.09448,5.875 0,-9.85938 1.5,0 0,1.5 q 0.57813,-1.04687 1.0625,-1.375 0.48438,-0.34375 1.07813,-0.34375 0.84375,0 1.71875,0.54688 l -0.57813,1.54687 q -0.60937,-0.35937 -1.23437,-0.35937 -0.54688,0 -0.98438,0.32812 -0.42187,0.32813 -0.60937,0.90625 -0.28125,0.89063 -0.28125,1.95313 l 0,5.15625 -1.67188,0 z m 12.66581,-1.21875 q -0.9375,0.79687 -1.79688,1.125 -0.85937,0.3125 -1.84375,0.3125 -1.60937,0 -2.48437,-0.78125 -0.875,-0.79688 -0.875,-2.03125 0,-0.73438 0.32812,-1.32813 0.32813,-0.59375 0.85938,-0.95312 0.53125,-0.35938 1.20312,-0.54688 0.5,-0.14062 1.48438,-0.25 2.03125,-0.25 2.98437,-0.57812 0,-0.34375 0,-0.4375 0,-1.01563 -0.46875,-1.4375 -0.64062,-0.5625 -1.90625,-0.5625 -1.17187,0 -1.73437,0.40625 -0.5625,0.40625 -0.82813,1.46875 l -1.64062,-0.23438 q 0.23437,-1.04687 0.73437,-1.6875 0.51563,-0.64062 1.46875,-0.98437 0.96875,-0.35938 2.25,-0.35938 1.26563,0 2.04688,0.29688 0.78125,0.29687 1.15625,0.75 0.375,0.45312 0.51562,1.14062 0.0937,0.42188 0.0937,1.53125 l 0,2.23438 q 0,2.32812 0.0937,2.95312 0.10938,0.60938 0.4375,1.17188 l -1.75,0 q -0.26562,-0.51563 -0.32812,-1.21875 z m -0.14063,-3.71875 q -0.90625,0.35937 -2.73437,0.625 -1.03125,0.14062 -1.45313,0.32812 -0.42187,0.1875 -0.65625,0.54688 -0.23437,0.35937 -0.23437,0.79687 0,0.67188 0.5,1.125 0.51562,0.4375 1.48437,0.4375 0.96875,0 1.71875,-0.42187 0.75,-0.4375 1.10938,-1.15625 0.26562,-0.57813 0.26562,-1.67188 l 0,-0.60937 z m 4.04758,4.9375 0,-13.59375 1.67187,0 0,13.59375 -1.67187,0 z m 10.67187,-11.3125 0,1.9375 -1.79687,0 0,-1.53125 q 0,-1.25 0.29687,-1.79688 0.39063,-0.75 1.23438,-1.125 l 0.40625,0.64063 q -0.5,0.21875 -0.75,0.64062 -0.23438,0.42188 -0.26563,1.23438 l 0.875,0 z m 2.875,0 0,1.9375 -1.79687,0 0,-1.53125 q 0,-1.25 0.29687,-1.79688 0.39063,-0.75 1.23438,-1.125 l 0.40625,0.64063 q -0.5,0.21875 -0.75,0.64062 -0.23438,0.42188 -0.26563,1.23438 l 0.875,0 z m 7.8533,11.3125 -1.67187,0 0,-10.64063 q -0.59375,0.57813 -1.57813,1.15625 -0.98437,0.5625 -1.76562,0.85938 l 0,-1.625 q 1.40625,-0.65625 2.45312,-1.59375 1.04688,-0.9375 1.48438,-1.8125 l 1.07812,0 0,13.65625 z m 4.11011,-11.79688 0,-1.9375 1.78125,0 0,1.53125 q 0,1.23438 -0.28125,1.78125 -0.40625,0.75 -1.25,1.14063 l -0.40625,-0.67188 q 0.5,-0.20312 0.75,-0.64062 0.25,-0.4375 0.26563,-1.20313 l -0.85938,0 z m 2.875,0 0,-1.9375 1.78125,0 0,1.53125 q 0,1.23438 -0.28125,1.78125 -0.40625,0.75 -1.25,1.14063 l -0.40625,-0.67188 q 0.5,-0.20312 0.75,-0.64062 0.25,-0.4375 0.28125,-1.20313 l -0.875,0 z"
       id="path65"
       inkscape:connector-curvature="0"
       style="fill:#000000;fill-rule:nonzero" />
    <path
       d="m 444.16534,116.16666 97.98425,0 0,21.00788 -97.98425,0 z"
       id="path67"
       inkscape:connector-curvature="0"
       style="fill:#cfe2f3;fill-rule:nonzero" />
    <path
       d="m 444.16534,116.16666 97.98425,0 0,21.00788 -97.98425,0 z"
       id="path69"
       inkscape:connector-curvature="0"
       style="fill-rule:nonzero;stroke:#000000;stroke-width:1;stroke-linecap:butt;stroke-linejoin:round" />
    <path
       d="m 454.41534,133.5906 0,-9.85938 1.5,0 0,1.39062 q 0.45313,-0.71875 1.21875,-1.15625 0.78125,-0.45312 1.76563,-0.45312 1.09375,0 1.79687,0.45312 0.70313,0.45313 0.98438,1.28125 1.17187,-1.73437 3.04687,-1.73437 1.46875,0 2.25,0.8125 0.79688,0.8125 0.79688,2.5 l 0,6.76563 -1.67188,0 0,-6.20313 q 0,-1 -0.15625,-1.4375 -0.15625,-0.45313 -0.59375,-0.71875 -0.42187,-0.26563 -1,-0.26563 -1.03125,0 -1.71875,0.6875 -0.6875,0.6875 -0.6875,2.21875 l 0,5.71876 -1.67187,0 0,-6.40626 q 0,-1.10937 -0.40625,-1.65625 -0.40625,-0.5625 -1.34375,-0.5625 -0.70313,0 -1.3125,0.375 -0.59375,0.35938 -0.85938,1.07813 -0.26562,0.71875 -0.26562,2.0625 l 0,5.10938 -1.67188,0 z m 21.99393,0 0,-1.45313 q -1.14063,1.67188 -3.125,1.67188 -0.85938,0 -1.625,-0.32813 -0.75,-0.34375 -1.125,-0.84375 -0.35938,-0.5 -0.51563,-1.23437 -0.0937,-0.5 -0.0937,-1.5625 l 0,-6.10938 1.67188,0 0,5.46875 q 0,1.3125 0.0937,1.76563 0.15625,0.65625 0.67187,1.03125 0.51563,0.375 1.26563,0.375 0.75,0 1.40625,-0.375 0.65625,-0.39063 0.92187,-1.04688 0.28125,-0.67187 0.28125,-1.9375 l 0,-5.28125 1.67188,0 0,9.85938 -1.5,0 z m 3.89135,0 0,-13.59376 1.67188,0 0,13.59376 -1.67188,0 z m 7.83231,-1.5 0.23438,1.48437 q -0.70313,0.14063 -1.26563,0.14063 -0.90625,0 -1.40625,-0.28125 -0.5,-0.29688 -0.70312,-0.75 -0.20313,-0.46875 -0.20313,-1.98438 l 0,-5.65625 -1.23437,0 0,-1.3125 1.23437,0 0,-2.4375 1.65625,-1 0,3.4375 1.6875,0 0,1.3125 -1.6875,0 0,5.75 q 0,0.71875 0.0781,0.92188 0.0937,0.20312 0.29687,0.32812 0.20313,0.125 0.57813,0.125 0.26562,0 0.73437,-0.0781 z m 1.54269,-10.18751 0,-1.90625 1.67188,0 0,1.90625 -1.67188,0 z m 0,11.68751 0,-9.85938 1.67188,0 0,9.85938 -1.67188,0 z m 4.12919,3.78125 0,-13.64063 1.53125,0 0,1.28125 q 0.53125,-0.75 1.20312,-1.125 0.6875,-0.375 1.64063,-0.375 1.26562,0 2.23437,0.65625 0.96875,0.64062 1.45313,1.82812 0.5,1.1875 0.5,2.59376 0,1.51562 -0.54688,2.73437 -0.54687,1.20313 -1.57812,1.84375 -1.03125,0.64063 -2.17188,0.64063 -0.84375,0 -1.51562,-0.34375 -0.65625,-0.35938 -1.07813,-0.89063 l 0,4.79688 -1.67187,0 z m 1.51562,-8.65625 q 0,1.90625 0.76563,2.8125 0.78125,0.90625 1.875,0.90625 1.10937,0 1.89062,-0.9375 0.79688,-0.9375 0.79688,-2.92188 0,-1.875 -0.78125,-2.8125 -0.76563,-0.9375 -1.84375,-0.9375 -1.0625,0 -1.89063,1 -0.8125,1 -0.8125,2.89063 z m 8.82886,4.875 0,-13.59376 1.67187,0 0,13.59376 -1.67187,0 z m 10.92608,-3.17188 1.71875,0.21875 q -0.40625,1.5 -1.51562,2.34375 -1.09375,0.82813 -2.8125,0.82813 -2.15628,0 -3.42191,-1.32813 -1.26562,-1.32812 -1.26562,-3.73437 0,-2.48438 1.26562,-3.85938 1.28125,-1.375 3.32816,-1.375 1.98437,0 3.23437,1.34375 1.25,1.34375 1.25,3.79688 0,0.14062 -0.0156,0.4375 l -7.34378,0 q 0.0937,1.625 0.92187,2.48437 0.82813,0.85938 2.06253,0.85938 0.90625,0 1.54688,-0.46875 0.65625,-0.48438 1.04687,-1.54688 z m -5.4844,-2.70313 5.50003,0 q -0.10938,-1.23437 -0.625,-1.85937 -0.79688,-0.96875 -2.07813,-0.96875 -1.14065,0 -1.93753,0.78125 -0.78125,0.76562 -0.85937,2.04687 z"
       id="path71"
       inkscape:connector-curvature="0"
       style="fill:#000000;fill-rule:nonzero" />
    <path
       d="m 351.34647,156.66667 102.17322,0 0,21.00787 -102.17322,0 z"
       id="path73"
       inkscape:connector-curvature="0"
       style="fill:#cfe2f3;fill-rule:nonzero" />
    <path
       d="m 351.34647,156.66667 102.17322,0 0,21.00787 -102.17322,0 z"
       id="path75"
       inkscape:connector-curvature="0"
       style="fill-rule:nonzero;stroke:#000000;stroke-width:1;stroke-linecap:butt;stroke-linejoin:round" />
    <path
       d="m 361.2996,174.9031 1.60937,0.25 q 0.10938,0.75 0.57813,1.09375 0.60937,0.45312 1.6875,0.45312 1.17187,0 1.79687,-0.46875 0.625,-0.45312 0.85938,-1.28125 0.125,-0.51562 0.10937,-2.15625 -1.09375,1.29688 -2.71875,1.29688 -2.03125,0 -3.15625,-1.46875 -1.10937,-1.46875 -1.10937,-3.51563 0,-1.40625 0.51562,-2.59375 0.51563,-1.20312 1.48438,-1.84375 0.96875,-0.65625 2.26562,-0.65625 1.75,0 2.875,1.40625 l 0,-1.1875 1.54688,0 0,8.51563 q 0,2.3125 -0.46875,3.26562 -0.46875,0.96875 -1.48438,1.51563 -1.01562,0.5625 -2.5,0.5625 -1.76562,0 -2.85937,-0.79688 -1.07813,-0.79687 -1.03125,-2.39062 z m 1.375,-5.92188 q 0,1.95313 0.76562,2.84375 0.78125,0.89063 1.9375,0.89063 1.14063,0 1.92188,-0.89063 0.78125,-0.89062 0.78125,-2.78125 0,-1.8125 -0.8125,-2.71875 -0.79688,-0.92187 -1.92188,-0.92187 -1.10937,0 -1.89062,0.90625 -0.78125,0.89062 -0.78125,2.67187 z m 16.04758,1.9375 1.71875,0.21875 q -0.40625,1.5 -1.51563,2.34375 -1.09375,0.82813 -2.8125,0.82813 -2.15625,0 -3.42187,-1.32813 -1.26563,-1.32812 -1.26563,-3.73437 0,-2.48438 1.26563,-3.85938 1.28125,-1.375 3.32812,-1.375 1.98438,0 3.23438,1.34375 1.25,1.34375 1.25,3.79688 0,0.14062 -0.0156,0.4375 l -7.34375,0 q 0.0937,1.625 0.92188,2.48437 0.82812,0.85938 2.0625,0.85938 0.90625,0 1.54687,-0.46875 0.65625,-0.48438 1.04688,-1.54688 z m -5.48438,-2.70312 5.5,0 q -0.10937,-1.23438 -0.625,-1.85938 -0.79687,-0.96875 -2.07812,-0.96875 -1.14063,0 -1.9375,0.78125 -0.78125,0.76563 -0.85938,2.04688 z m 12.76636,4.375 0.23437,1.48437 q -0.70312,0.14063 -1.26562,0.14063 -0.90625,0 -1.40625,-0.28125 -0.5,-0.29688 -0.70313,-0.75 -0.20312,-0.46875 -0.20312,-1.98438 l 0,-5.65625 -1.23438,0 0,-1.3125 1.23438,0 0,-2.4375 1.65625,-1 0,3.4375 1.6875,0 0,1.3125 -1.6875,0 0,5.75 q 0,0.71875 0.0781,0.92188 0.0937,0.20312 0.29688,0.32812 0.20312,0.125 0.57812,0.125 0.26563,0 0.73438,-0.0781 z m -0.004,5.28125 0,-1.21875 11.0625,0 0,1.21875 -11.0625,0 z m 11.87573,-3.78125 0,-13.59375 1.67187,0 0,13.59375 -1.67187,0 z m 3.55106,-4.92188 q 0,-2.73437 1.53125,-4.0625 1.26562,-1.09375 3.09375,-1.09375 2.03125,0 3.3125,1.34375 1.29687,1.32813 1.29687,3.67188 0,1.90625 -0.57812,3 -0.5625,1.07812 -1.65625,1.6875 -1.07813,0.59375 -2.375,0.59375 -2.0625,0 -3.34375,-1.32813 -1.28125,-1.32812 -1.28125,-3.8125 z m 1.71875,0 q 0,1.89063 0.82812,2.82813 0.82813,0.9375 2.07813,0.9375 1.25,0 2.0625,-0.9375 0.82812,-0.95313 0.82812,-2.89063 0,-1.82812 -0.82812,-2.76562 -0.82813,-0.9375 -2.0625,-0.9375 -1.25,0 -2.07813,0.9375 -0.82812,0.9375 -0.82812,2.82812 z m 15.71948,1.3125 1.64062,0.21875 q -0.26562,1.6875 -1.375,2.65625 -1.10937,0.95313 -2.73437,0.95313 -2.01563,0 -3.25,-1.3125 -1.21875,-1.32813 -1.21875,-3.79688 0,-1.59375 0.51562,-2.78125 0.53125,-1.20312 1.60938,-1.79687 1.09375,-0.60938 2.35937,-0.60938 1.60938,0 2.625,0.8125 1.01563,0.8125 1.3125,2.3125 l -1.625,0.25 q -0.23437,-1 -0.82812,-1.5 -0.59375,-0.5 -1.42188,-0.5 -1.26562,0 -2.0625,0.90625 -0.78125,0.90625 -0.78125,2.85938 0,1.98437 0.76563,2.89062 0.76562,0.89063 1.98437,0.89063 0.98438,0 1.64063,-0.59375 0.65625,-0.60938 0.84375,-1.85938 z m 9.32812,2.39063 q -0.9375,0.79687 -1.79687,1.125 -0.85938,0.3125 -1.84375,0.3125 -1.60938,0 -2.48438,-0.78125 -0.875,-0.79688 -0.875,-2.03125 0,-0.73438 0.32813,-1.32813 0.32812,-0.59375 0.85937,-0.95312 0.53125,-0.35938 1.20313,-0.54688 0.5,-0.14062 1.48437,-0.25 2.03125,-0.25 2.98438,-0.57812 0,-0.34375 0,-0.4375 0,-1.01563 -0.46875,-1.4375 -0.64063,-0.5625 -1.90625,-0.5625 -1.17188,0 -1.73438,0.40625 -0.5625,0.40625 -0.82812,1.46875 l -1.64063,-0.23438 q 0.23438,-1.04687 0.73438,-1.6875 0.51562,-0.64062 1.46875,-0.98437 0.96875,-0.35938 2.25,-0.35938 1.26562,0 2.04687,0.29688 0.78125,0.29687 1.15625,0.75 0.375,0.45312 0.51563,1.14062 0.0937,0.42188 0.0937,1.53125 l 0,2.23438 q 0,2.32812 0.0937,2.95312 0.10937,0.60938 0.4375,1.17188 l -1.75,0 q -0.26563,-0.51563 -0.32813,-1.21875 z m -0.14062,-3.71875 q -0.90625,0.35937 -2.73438,0.625 -1.03125,0.14062 -1.45312,0.32812 -0.42188,0.1875 -0.65625,0.54688 -0.23438,0.35937 -0.23438,0.79687 0,0.67188 0.5,1.125 0.51563,0.4375 1.48438,0.4375 0.96875,0 1.71875,-0.42187 0.75,-0.4375 1.10937,-1.15625 0.26563,-0.57813 0.26563,-1.67188 l 0,-0.60937 z m 4.04757,4.9375 0,-13.59375 1.67188,0 0,13.59375 -1.67188,0 z"
       id="path77"
       inkscape:connector-curvature="0"
       style="fill:#000000;fill-rule:nonzero" />
    <path
       d="m 349.67715,196.17455 108.1575,0 0,21.00787 -108.1575,0 z"
       id="path79"
       inkscape:connector-curvature="0"
       style="fill:#cfe2f3;fill-rule:nonzero" />
    <path
       d="m 349.67715,196.17455 108.1575,0 0,21.00787 -108.1575,0 z"
       id="path81"
       inkscape:connector-curvature="0"
       style="fill-rule:nonzero;stroke:#000000;stroke-width:1;stroke-linecap:butt;stroke-linejoin:round" />
    <path
       d="m 359.94278,201.91098 0,-1.90625 1.67188,0 0,1.90625 -1.67188,0 z m 0,11.6875 0,-9.85938 1.67188,0 0,9.85938 -1.67188,0 z m 4.12921,0 0,-9.85938 1.5,0 0,1.40625 q 1.09375,-1.625 3.14063,-1.625 0.89062,0 1.64062,0.32813 0.75,0.3125 1.10938,0.84375 0.375,0.51562 0.53125,1.21875 0.0937,0.46875 0.0937,1.625 l 0,6.0625 -1.67188,0 0,-6 q 0,-1.01563 -0.20312,-1.51563 -0.1875,-0.51562 -0.6875,-0.8125 -0.5,-0.29687 -1.17188,-0.29687 -1.0625,0 -1.84375,0.67187 -0.76562,0.67188 -0.76562,2.57813 l 0,5.375 -1.67188,0 z m 16.76633,0 0,-1.25 q -0.9375,1.46875 -2.75,1.46875 -1.17188,0 -2.17188,-0.64063 -0.98437,-0.65625 -1.53125,-1.8125 -0.53125,-1.17187 -0.53125,-2.6875 0,-1.46875 0.48438,-2.67187 0.5,-1.20313 1.46875,-1.84375 0.98437,-0.64063 2.20312,-0.64063 0.89063,0 1.57813,0.375 0.70312,0.375 1.14062,0.98438 l 0,-4.875 1.65625,0 0,13.59375 -1.54687,0 z m -5.28125,-4.92188 q 0,1.89063 0.79687,2.82813 0.8125,0.9375 1.89063,0.9375 1.09375,0 1.85937,-0.89063 0.76563,-0.89062 0.76563,-2.73437 0,-2.01563 -0.78125,-2.95313 -0.78125,-0.95312 -1.92188,-0.95312 -1.10937,0 -1.85937,0.90625 -0.75,0.90625 -0.75,2.85937 z m 16.01636,1.75 1.71875,0.21875 q -0.40625,1.5 -1.51563,2.34375 -1.09375,0.82813 -2.8125,0.82813 -2.15625,0 -3.42187,-1.32813 -1.26563,-1.32812 -1.26563,-3.73437 0,-2.48438 1.26563,-3.85938 1.28125,-1.375 3.32812,-1.375 1.98438,0 3.23438,1.34375 1.25,1.34375 1.25,3.79688 0,0.14062 -0.0156,0.4375 l -7.34375,0 q 0.0937,1.625 0.92188,2.48437 0.82812,0.85938 2.0625,0.85938 0.90625,0 1.54687,-0.46875 0.65625,-0.48438 1.04688,-1.54688 z m -5.48438,-2.70312 5.5,0 q -0.10937,-1.23438 -0.625,-1.85938 -0.79687,-0.96875 -2.07812,-0.96875 -1.14063,0 -1.9375,0.78125 -0.78125,0.76563 -0.85938,2.04688 z m 8.0007,5.875 3.59375,-5.125 -3.32812,-4.73438 2.09375,0 1.51562,2.3125 q 0.42188,0.65625 0.67188,1.10938 0.42187,-0.60938 0.76562,-1.09375 l 1.65625,-2.32813 1.98438,0 -3.39063,4.64063 3.65625,5.21875 -2.04687,0 -2.03125,-3.0625 -0.53125,-0.82813 -2.59375,3.89063 -2.01563,0 z m 22.11661,-11.3125 0,1.9375 -1.79687,0 0,-1.53125 q 0,-1.25 0.29687,-1.79688 0.39063,-0.75 1.23438,-1.125 l 0.40625,0.64063 q -0.5,0.21875 -0.75,0.64062 -0.23438,0.42188 -0.26563,1.23438 l 0.875,0 z m 2.875,0 0,1.9375 -1.79687,0 0,-1.53125 q 0,-1.25 0.29687,-1.79688 0.39063,-0.75 1.23438,-1.125 l 0.40625,0.64063 q -0.5,0.21875 -0.75,0.64062 -0.23438,0.42188 -0.26563,1.23438 l 0.875,0 z m 5.50955,13.26562 0,-1.67187 q -1.25,-0.15625 -2.04687,-0.54688 -0.78125,-0.40625 -1.35938,-1.3125 -0.5625,-0.90625 -0.65625,-2.20312 l 1.6875,-0.3125 q 0.1875,1.34375 0.6875,1.98437 0.70313,0.89063 1.6875,0.98438 l 0,-5.3125 q -1.03125,-0.20313 -2.10937,-0.79688 -0.79688,-0.45312 -1.23438,-1.23437 -0.42187,-0.79688 -0.42187,-1.79688 0,-1.78125 1.26562,-2.875 0.84375,-0.75 2.5,-0.92187 l 0,-0.79688 0.98438,0 0,0.79688 q 1.45312,0.14062 2.3125,0.85937 1.09375,0.90625 1.3125,2.5 l -1.73438,0.25 q -0.14062,-0.98437 -0.60937,-1.5 -0.46875,-0.53125 -1.28125,-0.6875 l 0,4.8125 q 1.26562,0.3125 1.67187,0.48438 0.78125,0.34375 1.26563,0.84375 0.48437,0.48437 0.75,1.17187 0.26562,0.67188 0.26562,1.45313 0,1.73437 -1.10937,2.90625 -1.09375,1.15625 -2.84375,1.23437 l 0,1.6875 -0.98438,0 z m 0,-14.60937 q -0.98437,0.14062 -1.54687,0.78125 -0.54688,0.625 -0.54688,1.48437 0,0.85938 0.46875,1.4375 0.48438,0.5625 1.625,0.90625 l 0,-4.60937 z m 0.98438,11.53125 q 0.96875,-0.125 1.59375,-0.84375 0.64062,-0.71875 0.64062,-1.78125 0,-0.92188 -0.45312,-1.46875 -0.4375,-0.54688 -1.78125,-0.98438 l 0,5.07813 z m 5.9226,-10.5625 0,-1.90625 1.67188,0 0,1.90625 -1.67188,0 z m 0,11.6875 0,-9.85938 1.67188,0 0,9.85938 -1.67188,0 z m 5.44169,-11.3125 0,1.9375 -1.79688,0 0,-1.53125 q 0,-1.25 0.29688,-1.79688 0.39062,-0.75 1.23437,-1.125 l 0.40625,0.64063 q -0.5,0.21875 -0.75,0.64062 -0.23437,0.42188 -0.26562,1.23438 l 0.875,0 z m 2.875,0 0,1.9375 -1.79688,0 0,-1.53125 q 0,-1.25 0.29688,-1.79688 0.39062,-0.75 1.23437,-1.125 l 0.40625,0.64063 q -0.5,0.21875 -0.75,0.64062 -0.23437,0.42188 -0.26562,1.23438 l 0.875,0 z"
       id="path83"
       inkscape:connector-curvature="0"
       style="fill:#000000;fill-rule:nonzero" />
    <path
       d="m 524.6168,193.6798 53.48029,0 0,21.00787 -53.48029,0 z"
       id="path85"
       inkscape:connector-curvature="0"
       style="fill:#cfe2f3;fill-rule:nonzero" />
    <path
       d="m 524.6168,193.6798 53.48029,0 0,21.00787 -53.48029,0 z"
       id="path87"
       inkscape:connector-curvature="0"
       style="fill-rule:nonzero;stroke:#000000;stroke-width:1;stroke-linecap:butt;stroke-linejoin:round" />
    <path
       d="m 541.3043,207.49435 1.64062,0.21875 q -0.26562,1.6875 -1.375,2.65625 -1.10937,0.95312 -2.73437,0.95312 -2.01563,0 -3.25,-1.3125 -1.21875,-1.32812 -1.21875,-3.79687 0,-1.59375 0.51562,-2.78125 0.53125,-1.20313 1.60938,-1.79688 1.09375,-0.60937 2.35937,-0.60937 1.60938,0 2.625,0.8125 1.01563,0.8125 1.3125,2.3125 l -1.625,0.25 q -0.23437,-1 -0.82812,-1.5 -0.59375,-0.5 -1.42188,-0.5 -1.26562,0 -2.0625,0.90625 -0.78125,0.90625 -0.78125,2.85937 0,1.98438 0.76563,2.89063 0.76562,0.89062 1.98437,0.89062 0.98438,0 1.64063,-0.59375 0.65625,-0.60937 0.84375,-1.85937 z m 9.32812,2.39062 q -0.9375,0.79688 -1.79687,1.125 -0.85938,0.3125 -1.84375,0.3125 -1.60938,0 -2.48438,-0.78125 -0.875,-0.79687 -0.875,-2.03125 0,-0.73437 0.32813,-1.32812 0.32812,-0.59375 0.85937,-0.95313 0.53125,-0.35937 1.20313,-0.54687 0.5,-0.14063 1.48437,-0.25 2.03125,-0.25 2.98438,-0.57813 0,-0.34375 0,-0.4375 0,-1.01562 -0.46875,-1.4375 -0.64063,-0.5625 -1.90625,-0.5625 -1.17188,0 -1.73438,0.40625 -0.5625,0.40625 -0.82812,1.46875 l -1.64063,-0.23437 q 0.23438,-1.04688 0.73438,-1.6875 0.51562,-0.64063 1.46875,-0.98438 0.96875,-0.35937 2.25,-0.35937 1.26562,0 2.04687,0.29687 0.78125,0.29688 1.15625,0.75 0.375,0.45313 0.51563,1.14063 0.0937,0.42187 0.0937,1.53125 l 0,2.23437 q 0,2.32813 0.0937,2.95313 0.10937,0.60937 0.4375,1.17187 l -1.75,0 q -0.26563,-0.51562 -0.32813,-1.21875 z m -0.14062,-3.71875 q -0.90625,0.35938 -2.73438,0.625 -1.03125,0.14063 -1.45312,0.32813 -0.42188,0.1875 -0.65625,0.54687 -0.23438,0.35938 -0.23438,0.79688 0,0.67187 0.5,1.125 0.51563,0.4375 1.48438,0.4375 0.96875,0 1.71875,-0.42188 0.75,-0.4375 1.10937,-1.15625 0.26563,-0.57812 0.26563,-1.67187 l 0,-0.60938 z m 4.04755,4.9375 0,-13.59375 1.67187,0 0,13.59375 -1.67187,0 z m 4.14483,0 0,-13.59375 1.67188,0 0,13.59375 -1.67188,0 z"
       id="path89"
       inkscape:connector-curvature="0"
       style="fill:#000000;fill-rule:nonzero" />
    <path
       d="m 386.34122,230.68242 166.4252,0 0,21.00787 -166.4252,0 z"
       id="path91"
       inkscape:connector-curvature="0"
       style="fill:#cfe2f3;fill-rule:nonzero" />
    <path
       d="m 386.34122,230.68242 166.4252,0 0,21.00787 -166.4252,0 z"
       id="path93"
       inkscape:connector-curvature="0"
       style="fill-rule:nonzero;stroke:#000000;stroke-width:1;stroke-linecap:butt;stroke-linejoin:round" />
    <path
       d="m 396.60684,236.41885 0,-1.90625 1.67187,0 0,1.90625 -1.67187,0 z m 0,11.6875 0,-9.85938 1.67187,0 0,9.85938 -1.67187,0 z m 4.12918,0 0,-9.85938 1.5,0 0,1.40625 q 1.09375,-1.625 3.14063,-1.625 0.89062,0 1.64062,0.32813 0.75,0.3125 1.10938,0.84375 0.375,0.51562 0.53125,1.21875 0.0937,0.46875 0.0937,1.625 l 0,6.0625 -1.67188,0 0,-6 q 0,-1.01563 -0.20312,-1.51563 -0.1875,-0.51562 -0.6875,-0.8125 -0.5,-0.29687 -1.17188,-0.29687 -1.0625,0 -1.84375,0.67187 -0.76562,0.67188 -0.76562,2.57813 l 0,5.375 -1.67188,0 z m 16.76636,0 0,-1.25 q -0.9375,1.46875 -2.75,1.46875 -1.17188,0 -2.17188,-0.64063 -0.98437,-0.65625 -1.53125,-1.8125 -0.53125,-1.17187 -0.53125,-2.6875 0,-1.46875 0.48438,-2.67187 0.5,-1.20313 1.46875,-1.84375 0.98437,-0.64063 2.20312,-0.64063 0.89063,0 1.57813,0.375 0.70312,0.375 1.14062,0.98438 l 0,-4.875 1.65625,0 0,13.59375 -1.54687,0 z m -5.28125,-4.92188 q 0,1.89063 0.79687,2.82813 0.8125,0.9375 1.89063,0.9375 1.09375,0 1.85937,-0.89063 0.76563,-0.89062 0.76563,-2.73437 0,-2.01563 -0.78125,-2.95313 -0.78125,-0.95312 -1.92188,-0.95312 -1.10937,0 -1.85937,0.90625 -0.75,0.90625 -0.75,2.85937 z m 16.01632,1.75 1.71875,0.21875 q -0.40625,1.5 -1.51562,2.34375 -1.09375,0.82813 -2.8125,0.82813 -2.15625,0 -3.42188,-1.32813 -1.26562,-1.32812 -1.26562,-3.73437 0,-2.48438 1.26562,-3.85938 1.28125,-1.375 3.32813,-1.375 1.98437,0 3.23437,1.34375 1.25,1.34375 1.25,3.79688 0,0.14062 -0.0156,0.4375 l -7.34375,0 q 0.0937,1.625 0.92187,2.48437 0.82813,0.85938 2.0625,0.85938 0.90625,0 1.54688,-0.46875 0.65625,-0.48438 1.04687,-1.54688 z m -5.48437,-2.70312 5.5,0 q -0.10938,-1.23438 -0.625,-1.85938 -0.79688,-0.96875 -2.07813,-0.96875 -1.14062,0 -1.9375,0.78125 -0.78125,0.76563 -0.85937,2.04688 z m 8.00073,5.875 3.59375,-5.125 -3.32812,-4.73438 2.09375,0 1.51562,2.3125 q 0.42188,0.65625 0.67188,1.10938 0.42187,-0.60938 0.76562,-1.09375 l 1.65625,-2.32813 1.98438,0 -3.39063,4.64063 3.65625,5.21875 -2.04687,0 -2.03125,-3.0625 -0.53125,-0.82813 -2.59375,3.89063 -2.01563,0 z m 22.11661,-11.3125 0,1.9375 -1.79687,0 0,-1.53125 q 0,-1.25 0.29687,-1.79688 0.39063,-0.75 1.23438,-1.125 l 0.40625,0.64063 q -0.5,0.21875 -0.75,0.64062 -0.23438,0.42188 -0.26563,1.23438 l 0.875,0 z m 2.875,0 0,1.9375 -1.79687,0 0,-1.53125 q 0,-1.25 0.29687,-1.79688 0.39063,-0.75 1.23438,-1.125 l 0.40625,0.64063 q -0.5,0.21875 -0.75,0.64062 -0.23438,0.42188 -0.26563,1.23438 l 0.875,0 z m 5.50955,13.26562 0,-1.67187 q -1.25,-0.15625 -2.04687,-0.54688 -0.78125,-0.40625 -1.35938,-1.3125 -0.5625,-0.90625 -0.65625,-2.20312 l 1.6875,-0.3125 q 0.1875,1.34375 0.6875,1.98437 0.70313,0.89063 1.6875,0.98438 l 0,-5.3125 q -1.03125,-0.20313 -2.10937,-0.79688 -0.79688,-0.45312 -1.23438,-1.23437 -0.42187,-0.79688 -0.42187,-1.79688 0,-1.78125 1.26562,-2.875 0.84375,-0.75 2.5,-0.92187 l 0,-0.79688 0.98438,0 0,0.79688 q 1.45312,0.14062 2.3125,0.85937 1.09375,0.90625 1.3125,2.5 l -1.73438,0.25 q -0.14062,-0.98437 -0.60937,-1.5 -0.46875,-0.53125 -1.28125,-0.6875 l 0,4.8125 q 1.26562,0.3125 1.67187,0.48438 0.78125,0.34375 1.26563,0.84375 0.48437,0.48437 0.75,1.17187 0.26562,0.67188 0.26562,1.45313 0,1.73437 -1.10937,2.90625 -1.09375,1.15625 -2.84375,1.23437 l 0,1.6875 -0.98438,0 z m 0,-14.60937 q -0.98437,0.14062 -1.54687,0.78125 -0.54688,0.625 -0.54688,1.48437 0,0.85938 0.46875,1.4375 0.48438,0.5625 1.625,0.90625 l 0,-4.60937 z m 0.98438,11.53125 q 0.96875,-0.125 1.59375,-0.84375 0.64062,-0.71875 0.64062,-1.78125 0,-0.92188 -0.45312,-1.46875 -0.4375,-0.54688 -1.78125,-0.98438 l 0,5.07813 z m 6.3132,1.125 0,-8.54688 -1.48438,0 0,-1.3125 1.48438,0 0,-1.04687 q 0,-0.98438 0.17187,-1.46875 0.23438,-0.65625 0.84375,-1.04688 0.60938,-0.40625 1.70313,-0.40625 0.70312,0 1.5625,0.15625 l -0.25,1.46875 q -0.51563,-0.0937 -0.98438,-0.0937 -0.76562,0 -1.07812,0.32813 -0.3125,0.3125 -0.3125,1.20312 l 0,0.90625 1.92187,0 0,1.3125 -1.92187,0 0,8.54688 -1.65625,0 z m 11.21457,-1.21875 q -0.9375,0.79687 -1.79688,1.125 -0.85937,0.3125 -1.84375,0.3125 -1.60937,0 -2.48437,-0.78125 -0.875,-0.79688 -0.875,-2.03125 0,-0.73438 0.32812,-1.32813 0.32813,-0.59375 0.85938,-0.95312 0.53125,-0.35938 1.20312,-0.54688 0.5,-0.14062 1.48438,-0.25 2.03125,-0.25 2.98437,-0.57812 0,-0.34375 0,-0.4375 0,-1.01563 -0.46875,-1.4375 -0.64062,-0.5625 -1.90625,-0.5625 -1.17187,0 -1.73437,0.40625 -0.5625,0.40625 -0.82813,1.46875 l -1.64062,-0.23438 q 0.23437,-1.04687 0.73437,-1.6875 0.51563,-0.64062 1.46875,-0.98437 0.96875,-0.35938 2.25,-0.35938 1.26563,0 2.04688,0.29688 0.78125,0.29687 1.15625,0.75 0.375,0.45312 0.51562,1.14062 0.0937,0.42188 0.0937,1.53125 l 0,2.23438 q 0,2.32812 0.0937,2.95312 0.10938,0.60938 0.4375,1.17188 l -1.75,0 q -0.26562,-0.51563 -0.32812,-1.21875 z m -0.14063,-3.71875 q -0.90625,0.35937 -2.73437,0.625 -1.03125,0.14062 -1.45313,0.32812 -0.42187,0.1875 -0.65625,0.54688 -0.23437,0.35937 -0.23437,0.79687 0,0.67188 0.5,1.125 0.51562,0.4375 1.48437,0.4375 0.96875,0 1.71875,-0.42187 0.75,-0.4375 1.10938,-1.15625 0.26562,-0.57813 0.26562,-1.67188 l 0,-0.60937 z m 10.51633,1.32812 1.64062,0.21875 q -0.26562,1.6875 -1.375,2.65625 -1.10937,0.95313 -2.73437,0.95313 -2.01563,0 -3.25,-1.3125 -1.21875,-1.32813 -1.21875,-3.79688 0,-1.59375 0.51562,-2.78125 0.53125,-1.20312 1.60938,-1.79687 1.09375,-0.60938 2.35937,-0.60938 1.60938,0 2.625,0.8125 1.01563,0.8125 1.3125,2.3125 l -1.625,0.25 q -0.23437,-1 -0.82812,-1.5 -0.59375,-0.5 -1.42188,-0.5 -1.26562,0 -2.0625,0.90625 -0.78125,0.90625 -0.78125,2.85938 0,1.98437 0.76563,2.89062 0.76562,0.89063 1.98437,0.89063 0.98438,0 1.64063,-0.59375 0.65625,-0.60938 0.84375,-1.85938 z m 6.54687,2.10938 0.23438,1.48437 q -0.70313,0.14063 -1.26563,0.14063 -0.90625,0 -1.40625,-0.28125 -0.5,-0.29688 -0.70312,-0.75 -0.20313,-0.46875 -0.20313,-1.98438 l 0,-5.65625 -1.23437,0 0,-1.3125 1.23437,0 0,-2.4375 1.65625,-1 0,3.4375 1.6875,0 0,1.3125 -1.6875,0 0,5.75 q 0,0.71875 0.0781,0.92188 0.0937,0.20312 0.29687,0.32812 0.20313,0.125 0.57813,0.125 0.26562,0 0.73437,-0.0781 z m 0.90207,-3.42188 q 0,-2.73437 1.53125,-4.0625 1.26563,-1.09375 3.09375,-1.09375 2.03125,0 3.3125,1.34375 1.29688,1.32813 1.29688,3.67188 0,1.90625 -0.57813,3 -0.5625,1.07812 -1.65625,1.6875 -1.07812,0.59375 -2.375,0.59375 -2.0625,0 -3.34375,-1.32813 -1.28125,-1.32812 -1.28125,-3.8125 z m 1.71875,0 q 0,1.89063 0.82813,2.82813 0.82812,0.9375 2.07812,0.9375 1.25,0 2.0625,-0.9375 0.82813,-0.95313 0.82813,-2.89063 0,-1.82812 -0.82813,-2.76562 -0.82812,-0.9375 -2.0625,-0.9375 -1.25,0 -2.07812,0.9375 -0.82813,0.9375 -0.82813,2.82812 z m 9.26633,4.92188 0,-9.85938 1.5,0 0,1.5 q 0.57813,-1.04687 1.0625,-1.375 0.48438,-0.34375 1.07813,-0.34375 0.84375,0 1.71875,0.54688 l -0.57813,1.54687 q -0.60937,-0.35937 -1.23437,-0.35937 -0.54688,0 -0.98438,0.32812 -0.42187,0.32813 -0.60937,0.90625 -0.28125,0.89063 -0.28125,1.95313 l 0,5.15625 -1.67188,0 z m 6.24396,-11.6875 0,-1.90625 1.67187,0 0,1.90625 -1.67187,0 z m 0,11.6875 0,-9.85938 1.67187,0 0,9.85938 -1.67187,0 z m 10.56665,-1.21875 q -0.9375,0.79687 -1.79688,1.125 -0.85937,0.3125 -1.84375,0.3125 -1.60937,0 -2.48437,-0.78125 -0.875,-0.79688 -0.875,-2.03125 0,-0.73438 0.32812,-1.32813 0.32813,-0.59375 0.85938,-0.95312 0.53125,-0.35938 1.20312,-0.54688 0.5,-0.14062 1.48438,-0.25 2.03125,-0.25 2.98437,-0.57812 0,-0.34375 0,-0.4375 0,-1.01563 -0.46875,-1.4375 -0.64062,-0.5625 -1.90625,-0.5625 -1.17187,0 -1.73437,0.40625 -0.5625,0.40625 -0.82813,1.46875 l -1.64062,-0.23438 q 0.23437,-1.04687 0.73437,-1.6875 0.51563,-0.64062 1.46875,-0.98437 0.96875,-0.35938 2.25,-0.35938 1.26563,0 2.04688,0.29688 0.78125,0.29687 1.15625,0.75 0.375,0.45312 0.51562,1.14062 0.0937,0.42188 0.0937,1.53125 l 0,2.23438 q 0,2.32812 0.0937,2.95312 0.10938,0.60938 0.4375,1.17188 l -1.75,0 q -0.26562,-0.51563 -0.32812,-1.21875 z m -0.14063,-3.71875 q -0.90625,0.35937 -2.73437,0.625 -1.03125,0.14062 -1.45313,0.32812 -0.42187,0.1875 -0.65625,0.54688 -0.23437,0.35937 -0.23437,0.79687 0,0.67188 0.5,1.125 0.51562,0.4375 1.48437,0.4375 0.96875,0 1.71875,-0.42187 0.75,-0.4375 1.10938,-1.15625 0.26562,-0.57813 0.26562,-1.67188 l 0,-0.60937 z m 4.04761,4.9375 0,-13.59375 1.67188,0 0,13.59375 -1.67188,0 z m 5.48859,-11.3125 0,1.9375 -1.79688,0 0,-1.53125 q 0,-1.25 0.29688,-1.79688 0.39062,-0.75 1.23437,-1.125 l 0.40625,0.64063 q -0.5,0.21875 -0.75,0.64062 -0.23437,0.42188 -0.26562,1.23438 l 0.875,0 z m 2.875,0 0,1.9375 -1.79688,0 0,-1.53125 q 0,-1.25 0.29688,-1.79688 0.39062,-0.75 1.23437,-1.125 l 0.40625,0.64063 q -0.5,0.21875 -0.75,0.64062 -0.23437,0.42188 -0.26562,1.23438 l 0.875,0 z"
       id="path95"
       inkscape:connector-curvature="0"
       style="fill:#000000;fill-rule:nonzero" />
    <path
       d="m 562.0184,230.6798 53.48029,0 0,21.00787 -53.48029,0 z"
       id="path97"
       inkscape:connector-curvature="0"
       style="fill:#cfe2f3;fill-rule:nonzero" />
    <path
       d="m 562.0184,230.6798 53.48029,0 0,21.00787 -53.48029,0 z"
       id="path99"
       inkscape:connector-curvature="0"
       style="fill-rule:nonzero;stroke:#000000;stroke-width:1;stroke-linecap:butt;stroke-linejoin:round" />
    <path
       d="m 571.5965,245.16623 1.65625,-0.26562 q 0.14062,1 0.76562,1.53125 0.64063,0.51562 1.78125,0.51562 1.15625,0 1.70313,-0.46875 0.5625,-0.46875 0.5625,-1.09375 0,-0.5625 -0.48438,-0.89062 -0.34375,-0.21875 -1.70312,-0.5625 -1.84375,-0.46875 -2.5625,-0.79688 -0.70313,-0.34375 -1.07813,-0.9375 -0.35937,-0.60937 -0.35937,-1.32812 0,-0.65625 0.29687,-1.21875 0.3125,-0.5625 0.82813,-0.9375 0.39062,-0.28125 1.0625,-0.48438 0.67187,-0.20312 1.4375,-0.20312 1.17187,0 2.04687,0.34375 0.875,0.32812 1.28125,0.90625 0.42188,0.5625 0.57813,1.51562 l -1.625,0.21875 q -0.10938,-0.75 -0.65625,-1.17187 -0.53125,-0.4375 -1.5,-0.4375 -1.15625,0 -1.64063,0.39062 -0.48437,0.375 -0.48437,0.875 0,0.32813 0.20312,0.59375 0.20313,0.26563 0.64063,0.4375 0.25,0.0937 1.46875,0.4375 1.76562,0.46875 2.46875,0.76563 0.70312,0.29687 1.09375,0.875 0.40625,0.57812 0.40625,1.4375 0,0.82812 -0.48438,1.57812 -0.48437,0.73438 -1.40625,1.14063 -0.92187,0.39062 -2.07812,0.39062 -1.92188,0 -2.9375,-0.79687 -1,-0.79688 -1.28125,-2.35938 z m 16.45312,2.9375 0,-1.45312 q -1.14062,1.67187 -3.125,1.67187 -0.85937,0 -1.625,-0.32812 -0.75,-0.34375 -1.125,-0.84375 -0.35937,-0.5 -0.51562,-1.23438 -0.0937,-0.5 -0.0937,-1.5625 l 0,-6.10937 1.67187,0 0,5.46875 q 0,1.3125 0.0937,1.76562 0.15625,0.65625 0.67188,1.03125 0.51562,0.375 1.26562,0.375 0.75,0 1.40625,-0.375 0.65625,-0.39062 0.92188,-1.04687 0.28125,-0.67188 0.28125,-1.9375 l 0,-5.28125 1.67187,0 0,9.85937 -1.5,0 z m 5.46949,0 -1.54688,0 0,-13.59375 1.65625,0 0,4.84375 q 1.0625,-1.32812 2.70313,-1.32812 0.90625,0 1.71875,0.375 0.8125,0.35937 1.32812,1.03125 0.53125,0.65625 0.82813,1.59375 0.29687,0.9375 0.29687,2 0,2.53125 -1.25,3.92187 -1.25,1.375 -3,1.375 -1.75,0 -2.73437,-1.45312 l 0,1.23437 z m -0.0156,-5 q 0,1.76563 0.46875,2.5625 0.79688,1.28125 2.14063,1.28125 1.09375,0 1.89062,-0.9375 0.79688,-0.95312 0.79688,-2.84375 0,-1.92187 -0.76563,-2.84375 -0.76562,-0.92187 -1.84375,-0.92187 -1.09375,0 -1.89062,0.95312 -0.79688,0.95313 -0.79688,2.75 z"
       id="path101"
       inkscape:connector-curvature="0"
       style="fill:#000000;fill-rule:nonzero" />
    <path
       d="m 475.9239,267.67978 102.17322,0 0,21.00787 -102.17322,0 z"
       id="path103"
       inkscape:connector-curvature="0"
       style="fill:#cfe2f3;fill-rule:nonzero" />
    <path
       d="m 475.9239,267.67978 102.17322,0 0,21.00787 -102.17322,0 z"
       id="path105"
       inkscape:connector-curvature="0"
       style="fill-rule:nonzero;stroke:#000000;stroke-width:1;stroke-linecap:butt;stroke-linejoin:round" />
    <path
       d="m 485.877,285.91623 1.60937,0.25 q 0.10938,0.75 0.57813,1.09375 0.60937,0.45312 1.6875,0.45312 1.17187,0 1.79687,-0.46875 0.625,-0.45312 0.85938,-1.28125 0.125,-0.51562 0.10937,-2.15625 -1.09375,1.29688 -2.71875,1.29688 -2.03125,0 -3.15625,-1.46875 -1.10937,-1.46875 -1.10937,-3.51563 0,-1.40625 0.51562,-2.59375 0.51563,-1.20312 1.48438,-1.84375 0.96875,-0.65625 2.26562,-0.65625 1.75,0 2.875,1.40625 l 0,-1.1875 1.54688,0 0,8.51563 q 0,2.3125 -0.46875,3.26562 -0.46875,0.96875 -1.48438,1.51563 -1.01562,0.5625 -2.5,0.5625 -1.76562,0 -2.85937,-0.79688 -1.07813,-0.79687 -1.03125,-2.39062 z m 1.375,-5.92188 q 0,1.95313 0.76562,2.84375 0.78125,0.89063 1.9375,0.89063 1.14063,0 1.92188,-0.89063 0.78125,-0.89062 0.78125,-2.78125 0,-1.8125 -0.8125,-2.71875 -0.79688,-0.92187 -1.92188,-0.92187 -1.10937,0 -1.89062,0.90625 -0.78125,0.89062 -0.78125,2.67187 z m 16.04758,1.9375 1.71875,0.21875 q -0.40625,1.5 -1.51563,2.34375 -1.09375,0.82813 -2.8125,0.82813 -2.15625,0 -3.42187,-1.32813 -1.26563,-1.32812 -1.26563,-3.73437 0,-2.48438 1.26563,-3.85938 1.28125,-1.375 3.32812,-1.375 1.98438,0 3.23438,1.34375 1.25,1.34375 1.25,3.79688 0,0.14062 -0.0156,0.4375 l -7.34375,0 q 0.0937,1.625 0.92188,2.48437 0.82812,0.85938 2.0625,0.85938 0.90625,0 1.54687,-0.46875 0.65625,-0.48438 1.04688,-1.54688 z m -5.48438,-2.70312 5.5,0 q -0.10937,-1.23438 -0.625,-1.85938 -0.79687,-0.96875 -2.07812,-0.96875 -1.14063,0 -1.9375,0.78125 -0.78125,0.76563 -0.85938,2.04688 z m 12.76636,4.375 0.23437,1.48437 q -0.70312,0.14063 -1.26562,0.14063 -0.90625,0 -1.40625,-0.28125 -0.5,-0.29688 -0.70313,-0.75 -0.20312,-0.46875 -0.20312,-1.98438 l 0,-5.65625 -1.23438,0 0,-1.3125 1.23438,0 0,-2.4375 1.65625,-1 0,3.4375 1.6875,0 0,1.3125 -1.6875,0 0,5.75 q 0,0.71875 0.0781,0.92188 0.0937,0.20312 0.29688,0.32812 0.20312,0.125 0.57812,0.125 0.26563,0 0.73438,-0.0781 z m -0.004,5.28125 0,-1.21875 11.06253,0 0,1.21875 -11.06253,0 z m 11.8757,-3.78125 0,-13.59375 1.67187,0 0,13.59375 -1.67187,0 z m 3.55109,-4.92188 q 0,-2.73437 1.53125,-4.0625 1.26562,-1.09375 3.09375,-1.09375 2.03125,0 3.3125,1.34375 1.29687,1.32813 1.29687,3.67188 0,1.90625 -0.57812,3 -0.5625,1.07812 -1.65625,1.6875 -1.07813,0.59375 -2.375,0.59375 -2.0625,0 -3.34375,-1.32813 -1.28125,-1.32812 -1.28125,-3.8125 z m 1.71875,0 q 0,1.89063 0.82812,2.82813 0.82813,0.9375 2.07813,0.9375 1.25,0 2.0625,-0.9375 0.82812,-0.95313 0.82812,-2.89063 0,-1.82812 -0.82812,-2.76562 -0.82813,-0.9375 -2.0625,-0.9375 -1.25,0 -2.07813,0.9375 -0.82812,0.9375 -0.82812,2.82812 z m 15.71948,1.3125 1.64062,0.21875 q -0.26562,1.6875 -1.375,2.65625 -1.10937,0.95313 -2.73437,0.95313 -2.01563,0 -3.25,-1.3125 -1.21875,-1.32813 -1.21875,-3.79688 0,-1.59375 0.51562,-2.78125 0.53125,-1.20312 1.60938,-1.79687 1.09375,-0.60938 2.35937,-0.60938 1.60938,0 2.625,0.8125 1.01563,0.8125 1.3125,2.3125 l -1.625,0.25 q -0.23437,-1 -0.82812,-1.5 -0.59375,-0.5 -1.42188,-0.5 -1.26562,0 -2.0625,0.90625 -0.78125,0.90625 -0.78125,2.85938 0,1.98437 0.76563,2.89062 0.76562,0.89063 1.98437,0.89063 0.98438,0 1.64063,-0.59375 0.65625,-0.60938 0.84375,-1.85938 z m 9.32812,2.39063 q -0.9375,0.79687 -1.79687,1.125 -0.85938,0.3125 -1.84375,0.3125 -1.60938,0 -2.48438,-0.78125 -0.875,-0.79688 -0.875,-2.03125 0,-0.73438 0.32813,-1.32813 0.32812,-0.59375 0.85937,-0.95312 0.53125,-0.35938 1.20313,-0.54688 0.5,-0.14062 1.48437,-0.25 2.03125,-0.25 2.98438,-0.57812 0,-0.34375 0,-0.4375 0,-1.01563 -0.46875,-1.4375 -0.64063,-0.5625 -1.90625,-0.5625 -1.17188,0 -1.73438,0.40625 -0.5625,0.40625 -0.82812,1.46875 l -1.64063,-0.23438 q 0.23438,-1.04687 0.73438,-1.6875 0.51562,-0.64062 1.46875,-0.98437 0.96875,-0.35938 2.25,-0.35938 1.26562,0 2.04687,0.29688 0.78125,0.29687 1.15625,0.75 0.375,0.45312 0.51563,1.14062 0.0937,0.42188 0.0937,1.53125 l 0,2.23438 q 0,2.32812 0.0937,2.95312 0.10937,0.60938 0.4375,1.17188 l -1.75,0 q -0.26563,-0.51563 -0.32813,-1.21875 z m -0.14062,-3.71875 q -0.90625,0.35937 -2.73438,0.625 -1.03125,0.14062 -1.45312,0.32812 -0.42188,0.1875 -0.65625,0.54688 -0.23438,0.35937 -0.23438,0.79687 0,0.67188 0.5,1.125 0.51563,0.4375 1.48438,0.4375 0.96875,0 1.71875,-0.42187 0.75,-0.4375 1.10937,-1.15625 0.26563,-0.57813 0.26563,-1.67188 l 0,-0.60937 z m 4.04761,4.9375 0,-13.59375 1.67187,0 0,13.59375 -1.67187,0 z"
       id="path107"
       inkscape:connector-curvature="0"
       style="fill:#000000;fill-rule:nonzero" />
    <path
       d="m 472.93176,304.67715 108.15747,0 0,21.00787 -108.15747,0 z"
       id="path109"
       inkscape:connector-curvature="0"
       style="fill:#cfe2f3;fill-rule:nonzero" />
    <path
       d="m 472.93176,304.67715 108.15747,0 0,21.00787 -108.15747,0 z"
       id="path111"
       inkscape:connector-curvature="0"
       style="fill-rule:nonzero;stroke:#000000;stroke-width:1;stroke-linecap:butt;stroke-linejoin:round" />
    <path
       d="m 483.1974,310.4136 0,-1.90625 1.67188,0 0,1.90625 -1.67188,0 z m 0,11.6875 0,-9.85938 1.67188,0 0,9.85938 -1.67188,0 z m 4.12918,0 0,-9.85938 1.5,0 0,1.40625 q 1.09375,-1.625 3.14063,-1.625 0.89062,0 1.64062,0.32813 0.75,0.3125 1.10938,0.84375 0.375,0.51562 0.53125,1.21875 0.0937,0.46875 0.0937,1.625 l 0,6.0625 -1.67188,0 0,-6 q 0,-1.01563 -0.20312,-1.51563 -0.1875,-0.51562 -0.6875,-0.8125 -0.5,-0.29687 -1.17188,-0.29687 -1.0625,0 -1.84375,0.67187 -0.76562,0.67188 -0.76562,2.57813 l 0,5.375 -1.67188,0 z m 16.76636,0 0,-1.25 q -0.9375,1.46875 -2.75,1.46875 -1.17188,0 -2.17188,-0.64063 -0.98437,-0.65625 -1.53125,-1.8125 -0.53125,-1.17187 -0.53125,-2.6875 0,-1.46875 0.48438,-2.67187 0.5,-1.20313 1.46875,-1.84375 0.98437,-0.64063 2.20312,-0.64063 0.89063,0 1.57813,0.375 0.70312,0.375 1.14062,0.98438 l 0,-4.875 1.65625,0 0,13.59375 -1.54687,0 z m -5.28125,-4.92188 q 0,1.89063 0.79687,2.82813 0.8125,0.9375 1.89063,0.9375 1.09375,0 1.85937,-0.89063 0.76563,-0.89062 0.76563,-2.73437 0,-2.01563 -0.78125,-2.95313 -0.78125,-0.95312 -1.92188,-0.95312 -1.10937,0 -1.85937,0.90625 -0.75,0.90625 -0.75,2.85937 z m 16.01633,1.75 1.71875,0.21875 q -0.40625,1.5 -1.51563,2.34375 -1.09375,0.82813 -2.8125,0.82813 -2.15625,0 -3.42187,-1.32813 -1.26563,-1.32812 -1.26563,-3.73437 0,-2.48438 1.26563,-3.85938 1.28125,-1.375 3.32812,-1.375 1.98438,0 3.23438,1.34375 1.25,1.34375 1.25,3.79688 0,0.14062 -0.0156,0.4375 l -7.34375,0 q 0.0937,1.625 0.92188,2.48437 0.82812,0.85938 2.0625,0.85938 0.90625,0 1.54687,-0.46875 0.65625,-0.48438 1.04688,-1.54688 z m -5.48438,-2.70312 5.5,0 q -0.10937,-1.23438 -0.625,-1.85938 -0.79687,-0.96875 -2.07812,-0.96875 -1.14063,0 -1.9375,0.78125 -0.78125,0.76563 -0.85938,2.04688 z m 8.00073,5.875 3.59375,-5.125 -3.32812,-4.73438 2.09375,0 1.51562,2.3125 q 0.42188,0.65625 0.67188,1.10938 0.42187,-0.60938 0.76562,-1.09375 l 1.65625,-2.32813 1.98438,0 -3.39063,4.64063 3.65625,5.21875 -2.04687,0 -2.03125,-3.0625 -0.53125,-0.82813 -2.59375,3.89063 -2.01563,0 z m 22.11658,-11.3125 0,1.9375 -1.79688,0 0,-1.53125 q 0,-1.25 0.29688,-1.79688 0.39062,-0.75 1.23437,-1.125 l 0.40625,0.64063 q -0.5,0.21875 -0.75,0.64062 -0.23437,0.42188 -0.26562,1.23438 l 0.875,0 z m 2.875,0 0,1.9375 -1.79688,0 0,-1.53125 q 0,-1.25 0.29688,-1.79688 0.39062,-0.75 1.23437,-1.125 l 0.40625,0.64063 q -0.5,0.21875 -0.75,0.64062 -0.23437,0.42188 -0.26562,1.23438 l 0.875,0 z m 5.50958,13.26562 0,-1.67187 q -1.25,-0.15625 -2.04687,-0.54688 -0.78125,-0.40625 -1.35938,-1.3125 -0.5625,-0.90625 -0.65625,-2.20312 l 1.6875,-0.3125 q 0.1875,1.34375 0.6875,1.98437 0.70313,0.89063 1.6875,0.98438 l 0,-5.3125 q -1.03125,-0.20313 -2.10937,-0.79688 -0.79688,-0.45312 -1.23438,-1.23437 -0.42187,-0.79688 -0.42187,-1.79688 0,-1.78125 1.26562,-2.875 0.84375,-0.75 2.5,-0.92187 l 0,-0.79688 0.98438,0 0,0.79688 q 1.45312,0.14062 2.3125,0.85937 1.09375,0.90625 1.3125,2.5 l -1.73438,0.25 q -0.14062,-0.98437 -0.60937,-1.5 -0.46875,-0.53125 -1.28125,-0.6875 l 0,4.8125 q 1.26562,0.3125 1.67187,0.48438 0.78125,0.34375 1.26563,0.84375 0.48437,0.48437 0.75,1.17187 0.26562,0.67188 0.26562,1.45313 0,1.73437 -1.10937,2.90625 -1.09375,1.15625 -2.84375,1.23437 l 0,1.6875 -0.98438,0 z m 0,-14.60937 q -0.98437,0.14062 -1.54687,0.78125 -0.54688,0.625 -0.54688,1.48437 0,0.85938 0.46875,1.4375 0.48438,0.5625 1.625,0.90625 l 0,-4.60937 z m 0.98438,11.53125 q 0.96875,-0.125 1.59375,-0.84375 0.64062,-0.71875 0.64062,-1.78125 0,-0.92188 -0.45312,-1.46875 -0.4375,-0.54688 -1.78125,-0.98438 l 0,5.07813 z m 5.9226,-10.5625 0,-1.90625 1.67188,0 0,1.90625 -1.67188,0 z m 0,11.6875 0,-9.85938 1.67188,0 0,9.85938 -1.67188,0 z m 5.44165,-11.3125 0,1.9375 -1.79687,0 0,-1.53125 q 0,-1.25 0.29687,-1.79688 0.39063,-0.75 1.23438,-1.125 l 0.40625,0.64063 q -0.5,0.21875 -0.75,0.64062 -0.23438,0.42188 -0.26563,1.23438 l 0.875,0 z m 2.875,0 0,1.9375 -1.79687,0 0,-1.53125 q 0,-1.25 0.29687,-1.79688 0.39063,-0.75 1.23438,-1.125 l 0.40625,0.64063 q -0.5,0.21875 -0.75,0.64062 -0.23438,0.42188 -0.26563,1.23438 l 0.875,0 z"
       id="path113"
       inkscape:connector-curvature="0"
       style="fill:#000000;fill-rule:nonzero" />
    <path
       d="m 594.0971,267.67978 72,0 0,21.00787 -72,0 z"
       id="path115"
       inkscape:connector-curvature="0"
       style="fill:#cfe2f3;fill-rule:nonzero" />
    <path
       d="m 594.0971,267.67978 72,0 0,21.00787 -72,0 z"
       id="path117"
       inkscape:connector-curvature="0"
       style="fill-rule:nonzero;stroke:#000000;stroke-width:1;stroke-linecap:butt;stroke-linejoin:round" />
    <path
       d="m 610.7846,281.49435 1.64062,0.21875 q -0.26562,1.6875 -1.375,2.65625 -1.10937,0.95312 -2.73437,0.95312 -2.01563,0 -3.25,-1.3125 -1.21875,-1.32812 -1.21875,-3.79687 0,-1.59375 0.51562,-2.78125 0.53125,-1.20313 1.60938,-1.79688 1.09375,-0.60937 2.35937,-0.60937 1.60938,0 2.625,0.8125 1.01563,0.8125 1.3125,2.3125 l -1.625,0.25 q -0.23437,-1 -0.82812,-1.5 -0.59375,-0.5 -1.42188,-0.5 -1.26562,0 -2.0625,0.90625 -0.78125,0.90625 -0.78125,2.85937 0,1.98438 0.76563,2.89063 0.76562,0.89062 1.98437,0.89062 0.98438,0 1.64063,-0.59375 0.65625,-0.60937 0.84375,-1.85937 z m 2.26562,-1.3125 q 0,-2.73438 1.53125,-4.0625 1.26563,-1.09375 3.09375,-1.09375 2.03125,0 3.3125,1.34375 1.29688,1.32812 1.29688,3.67187 0,1.90625 -0.57813,3 -0.5625,1.07813 -1.65625,1.6875 -1.07812,0.59375 -2.375,0.59375 -2.0625,0 -3.34375,-1.32812 -1.28125,-1.32813 -1.28125,-3.8125 z m 1.71875,0 q 0,1.89062 0.82813,2.82812 0.82812,0.9375 2.07812,0.9375 1.25,0 2.0625,-0.9375 0.82813,-0.95312 0.82813,-2.89062 0,-1.82813 -0.82813,-2.76563 -0.82812,-0.9375 -2.0625,-0.9375 -1.25,0 -2.07812,0.9375 -0.82813,0.9375 -0.82813,2.82813 z m 9.28199,4.92187 0,-9.85937 1.5,0 0,1.40625 q 1.09375,-1.625 3.14062,-1.625 0.89063,0 1.64063,0.32812 0.75,0.3125 1.10937,0.84375 0.375,0.51563 0.53125,1.21875 0.0937,0.46875 0.0937,1.625 l 0,6.0625 -1.67187,0 0,-6 q 0,-1.01562 -0.20313,-1.51562 -0.1875,-0.51563 -0.6875,-0.8125 -0.5,-0.29688 -1.17187,-0.29688 -1.0625,0 -1.84375,0.67188 -0.76563,0.67187 -0.76563,2.57812 l 0,5.375 -1.67187,0 z m 9.70385,-2.9375 1.65625,-0.26562 q 0.14063,1 0.76563,1.53125 0.64062,0.51562 1.78125,0.51562 1.15625,0 1.70312,-0.46875 0.5625,-0.46875 0.5625,-1.09375 0,-0.5625 -0.48437,-0.89062 -0.34375,-0.21875 -1.70313,-0.5625 -1.84375,-0.46875 -2.5625,-0.79688 -0.70312,-0.34375 -1.07812,-0.9375 -0.35938,-0.60937 -0.35938,-1.32812 0,-0.65625 0.29688,-1.21875 0.3125,-0.5625 0.82812,-0.9375 0.39063,-0.28125 1.0625,-0.48438 0.67188,-0.20312 1.4375,-0.20312 1.17188,0 2.04688,0.34375 0.875,0.32812 1.28125,0.90625 0.42187,0.5625 0.57812,1.51562 l -1.625,0.21875 q -0.10937,-0.75 -0.65625,-1.17187 -0.53125,-0.4375 -1.5,-0.4375 -1.15625,0 -1.64062,0.39062 -0.48438,0.375 -0.48438,0.875 0,0.32813 0.20313,0.59375 0.20312,0.26563 0.64062,0.4375 0.25,0.0937 1.46875,0.4375 1.76563,0.46875 2.46875,0.76563 0.70313,0.29687 1.09375,0.875 0.40625,0.57812 0.40625,1.4375 0,0.82812 -0.48437,1.57812 -0.48438,0.73438 -1.40625,1.14063 -0.92188,0.39062 -2.07813,0.39062 -1.92187,0 -2.9375,-0.79687 -1,-0.79688 -1.28125,-2.35938 z m 13.65625,1.4375 0.23438,1.48438 q -0.70313,0.14062 -1.26563,0.14062 -0.90625,0 -1.40625,-0.28125 -0.5,-0.29687 -0.70312,-0.75 -0.20313,-0.46875 -0.20313,-1.98437 l 0,-5.65625 -1.23437,0 0,-1.3125 1.23437,0 0,-2.4375 1.65625,-1 0,3.4375 1.6875,0 0,1.3125 -1.6875,0 0,5.75 q 0,0.71875 0.0781,0.92187 0.0937,0.20313 0.29687,0.32813 0.20313,0.125 0.57813,0.125 0.26562,0 0.73437,-0.0781 z"
       id="path119"
       inkscape:connector-curvature="0"
       style="fill:#000000;fill-rule:nonzero" />
    <path
       d="m 594.0971,304.67978 102.17322,0 0,21.00787 -102.17322,0 z"
       id="path121"
       inkscape:connector-curvature="0"
       style="fill:#cfe2f3;fill-rule:nonzero" />
    <path
       d="m 594.0971,304.67978 102.17322,0 0,21.00787 -102.17322,0 z"
       id="path123"
       inkscape:connector-curvature="0"
       style="fill-rule:nonzero;stroke:#000000;stroke-width:1;stroke-linecap:butt;stroke-linejoin:round" />
    <path
       d="m 604.31586,322.10373 0,-13.59375 1.67188,0 0,13.59375 -1.67188,0 z m 4.19171,-11.6875 0,-1.90625 1.67188,0 0,1.90625 -1.67188,0 z m 0,11.6875 0,-9.85938 1.67188,0 0,9.85938 -1.67188,0 z m 7.78546,-1.5 0.23438,1.48437 q -0.70313,0.14063 -1.26563,0.14063 -0.90625,0 -1.40625,-0.28125 -0.5,-0.29688 -0.70312,-0.75 -0.20313,-0.46875 -0.20313,-1.98438 l 0,-5.65625 -1.23437,0 0,-1.3125 1.23437,0 0,-2.4375 1.65625,-1 0,3.4375 1.6875,0 0,1.3125 -1.6875,0 0,5.75 q 0,0.71875 0.0781,0.92188 0.0937,0.20312 0.29687,0.32812 0.20313,0.125 0.57813,0.125 0.26562,0 0.73437,-0.0781 z m 8.27704,-1.67188 1.71875,0.21875 q -0.40625,1.5 -1.51562,2.34375 -1.09375,0.82813 -2.8125,0.82813 -2.15625,0 -3.42188,-1.32813 -1.26562,-1.32812 -1.26562,-3.73437 0,-2.48438 1.26562,-3.85938 1.28125,-1.375 3.32813,-1.375 1.98437,0 3.23437,1.34375 1.25,1.34375 1.25,3.79688 0,0.14062 -0.0156,0.4375 l -7.34375,0 q 0.0937,1.625 0.92187,2.48437 0.82813,0.85938 2.0625,0.85938 0.90625,0 1.54688,-0.46875 0.65625,-0.48438 1.04687,-1.54688 z m -5.48437,-2.70312 5.5,0 q -0.10938,-1.23438 -0.625,-1.85938 -0.79688,-0.96875 -2.07813,-0.96875 -1.14062,0 -1.9375,0.78125 -0.78125,0.76563 -0.85937,2.04688 z m 9.09448,5.875 0,-9.85938 1.5,0 0,1.5 q 0.57812,-1.04687 1.0625,-1.375 0.48437,-0.34375 1.07812,-0.34375 0.84375,0 1.71875,0.54688 l -0.57812,1.54687 q -0.60938,-0.35937 -1.23438,-0.35937 -0.54687,0 -0.98437,0.32812 -0.42188,0.32813 -0.60938,0.90625 -0.28125,0.89063 -0.28125,1.95313 l 0,5.15625 -1.67187,0 z m 12.66577,-1.21875 q -0.9375,0.79687 -1.79687,1.125 -0.85938,0.3125 -1.84375,0.3125 -1.60938,0 -2.48438,-0.78125 -0.875,-0.79688 -0.875,-2.03125 0,-0.73438 0.32813,-1.32813 0.32812,-0.59375 0.85937,-0.95312 0.53125,-0.35938 1.20313,-0.54688 0.5,-0.14062 1.48437,-0.25 2.03125,-0.25 2.98438,-0.57812 0,-0.34375 0,-0.4375 0,-1.01563 -0.46875,-1.4375 -0.64063,-0.5625 -1.90625,-0.5625 -1.17188,0 -1.73438,0.40625 -0.5625,0.40625 -0.82812,1.46875 l -1.64063,-0.23438 q 0.23438,-1.04687 0.73438,-1.6875 0.51562,-0.64062 1.46875,-0.98437 0.96875,-0.35938 2.25,-0.35938 1.26562,0 2.04687,0.29688 0.78125,0.29687 1.15625,0.75 0.375,0.45312 0.51563,1.14062 0.0937,0.42188 0.0937,1.53125 l 0,2.23438 q 0,2.32812 0.0937,2.95312 0.10937,0.60938 0.4375,1.17188 l -1.75,0 q -0.26563,-0.51563 -0.32813,-1.21875 z m -0.14062,-3.71875 q -0.90625,0.35937 -2.73438,0.625 -1.03125,0.14062 -1.45312,0.32812 -0.42188,0.1875 -0.65625,0.54688 -0.23438,0.35937 -0.23438,0.79687 0,0.67188 0.5,1.125 0.51563,0.4375 1.48438,0.4375 0.96875,0 1.71875,-0.42187 0.75,-0.4375 1.10937,-1.15625 0.26563,-0.57813 0.26563,-1.67188 l 0,-0.60937 z m 4.0476,4.9375 0,-13.59375 1.67188,0 0,13.59375 -1.67188,0 z m 10.67188,-11.3125 0,1.9375 -1.79688,0 0,-1.53125 q 0,-1.25 0.29688,-1.79688 0.39062,-0.75 1.23437,-1.125 l 0.40625,0.64063 q -0.5,0.21875 -0.75,0.64062 -0.23437,0.42188 -0.26562,1.23438 l 0.875,0 z m 2.875,0 0,1.9375 -1.79688,0 0,-1.53125 q 0,-1.25 0.29688,-1.79688 0.39062,-0.75 1.23437,-1.125 l 0.40625,0.64063 q -0.5,0.21875 -0.75,0.64062 -0.23437,0.42188 -0.26562,1.23438 l 0.875,0 z m 7.85327,11.3125 -1.67188,0 0,-10.64063 q -0.59375,0.57813 -1.57812,1.15625 -0.98438,0.5625 -1.76563,0.85938 l 0,-1.625 q 1.40625,-0.65625 2.45313,-1.59375 1.04687,-0.9375 1.48437,-1.8125 l 1.07813,0 0,13.65625 z m 4.11011,-11.79688 0,-1.9375 1.78125,0 0,1.53125 q 0,1.23438 -0.28125,1.78125 -0.40625,0.75 -1.25,1.14063 l -0.40625,-0.67188 q 0.5,-0.20312 0.75,-0.64062 0.25,-0.4375 0.26562,-1.20313 l -0.85937,0 z m 2.875,0 0,-1.9375 1.78125,0 0,1.53125 q 0,1.23438 -0.28125,1.78125 -0.40625,0.75 -1.25,1.14063 l -0.40625,-0.67188 q 0.5,-0.20312 0.75,-0.64062 0.25,-0.4375 0.28125,-1.20313 l -0.875,0 z"
       id="path125"
       inkscape:connector-curvature="0"
       style="fill:#000000;fill-rule:nonzero" />
    <path
       d="M 195.33858,34.67454 181.6693,59.650916"
       id="path127"
       inkscape:connector-curvature="0"
       style="fill:#000000;fill-opacity:0;fill-rule:nonzero" />
    <path
       d="M 195.33858,34.67454 181.6693,59.650916"
       id="path129"
       inkscape:connector-curvature="0"
       style="fill-rule:nonzero;stroke:#000000;stroke-width:1;stroke-linecap:butt;stroke-linejoin:round" />
    <path
       d="m 181.66405,80.6706 -69.00788,37.98425"
       id="path131"
       inkscape:connector-curvature="0"
       style="fill:#000000;fill-opacity:0;fill-rule:nonzero" />
    <path
       d="m 181.66405,80.6706 -69.00788,37.98425"
       id="path133"
       inkscape:connector-curvature="0"
       style="fill-rule:nonzero;stroke:#000000;stroke-width:1;stroke-linecap:butt;stroke-linejoin:round" />
    <path
       d="M 112.6601,139.6588 54.077428,156.66667"
       id="path135"
       inkscape:connector-curvature="0"
       style="fill:#000000;fill-opacity:0;fill-rule:nonzero" />
    <path
       d="M 112.6601,139.6588 54.077428,156.66667"
       id="path137"
       inkscape:connector-curvature="0"
       style="fill-rule:nonzero;stroke:#000000;stroke-width:1;stroke-linecap:butt;stroke-linejoin:round" />
    <path
       d="m 54.077427,202.66667 0,0"
       id="path139"
       inkscape:connector-curvature="0"
       style="fill:#000000;fill-opacity:0;fill-rule:nonzero" />
    <path
       d="m 54.077427,202.66667 0,0"
       id="path141"
       inkscape:connector-curvature="0"
       style="fill-rule:nonzero;stroke:#000000;stroke-width:1;stroke-linecap:butt;stroke-linejoin:round" />
    <path
       d="m 54.077427,202.66667 0,0"
       id="path143"
       inkscape:connector-curvature="0"
       style="fill:#000000;fill-opacity:0;fill-rule:nonzero" />
    <path
       d="m 54.077427,202.66667 0,0"
       id="path145"
       inkscape:connector-curvature="0"
       style="fill-rule:nonzero;stroke:#000000;stroke-width:1;stroke-linecap:butt;stroke-linejoin:round" />
    <path
       d="m 181.66405,80.6706 89.51179,37.98425"
       id="path147"
       inkscape:connector-curvature="0"
       style="fill:#000000;fill-opacity:0;fill-rule:nonzero" />
    <path
       d="m 181.66405,80.6706 89.51179,37.98425"
       id="path149"
       inkscape:connector-curvature="0"
       style="fill-rule:nonzero;stroke:#000000;stroke-width:1;stroke-linecap:butt;stroke-linejoin:round" />
    <path
       d="m 181.66405,80.6706 311.49603,35.49606"
       id="path151"
       inkscape:connector-curvature="0"
       style="fill:#000000;fill-opacity:0;fill-rule:nonzero" />
    <path
       d="m 181.66405,80.6706 311.49603,35.49606"
       id="path153"
       inkscape:connector-curvature="0"
       style="fill-rule:nonzero;stroke:#000000;stroke-width:1;stroke-linecap:butt;stroke-linejoin:round" />
    <path
       d="m 493.15747,137.17455 -90.70865,19.49606"
       id="path155"
       inkscape:connector-curvature="0"
       style="fill:#000000;fill-opacity:0;fill-rule:nonzero" />
    <path
       d="m 493.15747,137.17455 -90.70865,19.49606"
       id="path157"
       inkscape:connector-curvature="0"
       style="fill-rule:nonzero;stroke:#000000;stroke-width:1;stroke-linecap:butt;stroke-linejoin:round" />
    <path
       d="m 493.15747,137.17455 58.20471,56.50394"
       id="path159"
       inkscape:connector-curvature="0"
       style="fill:#000000;fill-opacity:0;fill-rule:nonzero" />
    <path
       d="m 493.15747,137.17455 58.20471,56.50394"
       id="path161"
       inkscape:connector-curvature="0"
       style="fill-rule:nonzero;stroke:#000000;stroke-width:1;stroke-linecap:butt;stroke-linejoin:round" />
    <path
       d="m 551.35693,214.68767 -81.79526,16"
       id="path163"
       inkscape:connector-curvature="0"
       style="fill:#000000;fill-opacity:0;fill-rule:nonzero" />
    <path
       d="m 551.35693,214.68767 -81.79526,16"
       id="path165"
       inkscape:connector-curvature="0"
       style="fill-rule:nonzero;stroke:#000000;stroke-width:1;stroke-linecap:butt;stroke-linejoin:round" />
    <path
       d="m 551.35693,214.68767 37.41736,16"
       id="path167"
       inkscape:connector-curvature="0"
       style="fill:#000000;fill-opacity:0;fill-rule:nonzero" />
    <path
       d="m 551.35693,214.68767 37.41736,16"
       id="path169"
       inkscape:connector-curvature="0"
       style="fill-rule:nonzero;stroke:#000000;stroke-width:1;stroke-linecap:butt;stroke-linejoin:round" />
    <path
       d="m 588.75854,251.68767 -61.7323,15.99998"
       id="path171"
       inkscape:connector-curvature="0"
       style="fill:#000000;fill-opacity:0;fill-rule:nonzero" />
    <path
       d="m 588.75854,251.68767 -61.7323,15.99998"
       id="path173"
       inkscape:connector-curvature="0"
       style="fill-rule:nonzero;stroke:#000000;stroke-width:1;stroke-linecap:butt;stroke-linejoin:round" />
    <path
       d="m 588.75854,251.68767 41.32282,15.99998"
       id="path175"
       inkscape:connector-curvature="0"
       style="fill:#000000;fill-opacity:0;fill-rule:nonzero" />
    <path
       d="m 588.75854,251.68767 41.32282,15.99998"
       id="path177"
       inkscape:connector-curvature="0"
       style="fill-rule:nonzero;stroke:#000000;stroke-width:1;stroke-linecap:butt;stroke-linejoin:round" />
    <path
       d="m 630.0971,288.68765 15.08661,16"
       id="path179"
       inkscape:connector-curvature="0"
       style="fill:#000000;fill-opacity:0;fill-rule:nonzero" />
    <path
       d="m 630.0971,288.68765 15.08661,16"
       id="path181"
       inkscape:connector-curvature="0"
       style="fill-rule:nonzero;stroke:#000000;stroke-width:1;stroke-linecap:butt;stroke-linejoin:round" />
    <path
       d="m 527.0105,288.68765 0,16"
       id="path183"
       inkscape:connector-curvature="0"
       style="fill:#000000;fill-opacity:0;fill-rule:nonzero" />
    <path
       d="m 527.0105,288.68765 0,16"
       id="path185"
       inkscape:connector-curvature="0"
       style="fill-rule:nonzero;stroke:#000000;stroke-width:1;stroke-linecap:butt;stroke-linejoin:round" />
    <path
       d="m 271.16797,139.6693 5.25986,17.00787"
       id="path187"
       inkscape:connector-curvature="0"
       style="fill:#000000;fill-opacity:0;fill-rule:nonzero" />
    <path
       d="m 271.16797,139.6693 5.25986,17.00787"
       id="path189"
       inkscape:connector-curvature="0"
       style="fill-rule:nonzero;stroke:#000000;stroke-width:1;stroke-linecap:butt;stroke-linejoin:round" />
    <path
       d="m 402.43307,177.67455 1.32285,18.48819"
       id="path191"
       inkscape:connector-curvature="0"
       style="fill:#000000;fill-opacity:0;fill-rule:nonzero" />
    <path
       d="m 402.43307,177.67455 1.32285,18.48819"
       id="path193"
       inkscape:connector-curvature="0"
       style="fill-rule:nonzero;stroke:#000000;stroke-width:1;stroke-linecap:butt;stroke-linejoin:round" />
    <path
       d="m 159.15707,202.66667 0,-25.00787"
       id="path195"
       inkscape:connector-curvature="0"
       style="fill:#000000;fill-opacity:0;fill-rule:nonzero" />
    <path
       d="m 159.15707,202.66667 0,-25.00787"
       id="path197"
       inkscape:connector-curvature="0"
       style="fill-rule:nonzero;stroke:#000000;stroke-width:1;stroke-linecap:butt;stroke-linejoin:round" />
    <path
       d="m 54.077427,202.66667 0,-25.00787"
       id="path199"
       inkscape:connector-curvature="0"
       style="fill:#000000;fill-opacity:0;fill-rule:nonzero" />
    <path
       d="m 54.077427,202.66667 0,-25.00787"
       id="path201"
       inkscape:connector-curvature="0"
       style="fill-rule:nonzero;stroke:#000000;stroke-width:1;stroke-linecap:butt;stroke-linejoin:round" />
    <path
       d="m 112.66404,139.6693 46.4882,17.00787"
       id="path203"
       inkscape:connector-curvature="0"
       style="fill:#000000;fill-opacity:0;fill-rule:nonzero" />
    <path
       d="m 112.66404,139.6693 46.4882,17.00787"
       id="path205"
       inkscape:connector-curvature="0"
       style="fill-rule:nonzero;stroke:#000000;stroke-width:1;stroke-linecap:butt;stroke-linejoin:round" />
    <path
       d="m 346.83728,104.37008 361.16534,0 0,227.30707 -361.16534,0 z"
       id="path207"
       inkscape:connector-curvature="0"
       style="fill:#38ff22;fill-opacity:0.60210003;fill-rule:nonzero" />
    <path
       d="m 346.83728,104.37008 361.16534,0 0,227.30707 -361.16534,0 z"
       id="path209"
       inkscape:connector-curvature="0"
       style="fill-rule:nonzero;stroke:#000000;stroke-width:1;stroke-linecap:butt;stroke-linejoin:round" />
    <path
       d="m 223.45145,110.67979 115.18109,0 0,78.80315 -115.18109,0 z"
       id="path211"
       inkscape:connector-curvature="0"
       style="fill:#38ff22;fill-opacity:0.60210003;fill-rule:nonzero" />
    <path
       d="m 223.45145,110.67979 115.18109,0 0,78.80315 -115.18109,0 z"
       id="path213"
       inkscape:connector-curvature="0"
       style="fill-rule:nonzero;stroke:#000000;stroke-width:1;stroke-linecap:butt;stroke-linejoin:round" />
    <path
       d="m 0.83202124,110.67979 205.16536876,0 0,141.00787 -205.16536876,0 z"
       id="path215"
       inkscape:connector-curvature="0"
       style="fill:#38ff22;fill-opacity:0.60210003;fill-rule:nonzero" />
    <path
       d="m 0.83202124,110.67979 205.16536876,0 0,141.00787 -205.16536876,0 z"
       id="path217"
       inkscape:connector-curvature="0"
       style="fill-rule:nonzero;stroke:#000000;stroke-width:1;stroke-linecap:butt;stroke-linejoin:round" />
  </g>
</svg>
