<?xml version="1.0" standalone="yes"?>

<svg version="1.1" viewBox="0.0 0.0 720.0 540.0" fill="none" stroke="none" stroke-linecap="square" stroke-miterlimit="10" xmlns="http://www.w3.org/2000/svg" xmlns:xlink="http://www.w3.org/1999/xlink"><clipPath id="p.0"><path d="m0 0l720.0 0l0 540.0l-720.0 0l0 -540.0z" clip-rule="nonzero"></path></clipPath><g clip-path="url(#p.0)"><path fill="#000000" fill-opacity="0.0" d="m0 0l720.0 0l0 540.0l-720.0 0z" fill-rule="nonzero"></path><path fill="#ff9900" d="m58.0 157.66667l24.0 0l0 27.0l-24.0 0z" fill-rule="nonzero"></path><path stroke="#000000" stroke-width="1.0" stroke-linejoin="round" stroke-linecap="butt" d="m58.0 157.66667l24.0 0l0 27.0l-24.0 0z" fill-rule="nonzero"></path><path fill="#ff9900" d="m82.0 103.666664l24.0 0l0 27.000008l-24.0 0z" fill-rule="nonzero"></path><path stroke="#000000" stroke-width="1.0" stroke-linejoin="round" stroke-linecap="butt" d="m82.0 103.666664l24.0 0l0 27.000008l-24.0 0z" fill-rule="nonzero"></path><path fill="#ff9900" d="m114.0 42.666668l24.0 0l0 26.999996l-24.0 0z" fill-rule="nonzero"></path><path stroke="#000000" stroke-width="1.0" stroke-linejoin="round" stroke-linecap="butt" d="m114.0 42.666668l24.0 0l0 26.999996l-24.0 0z" fill-rule="nonzero"></path><path fill="#ff9900" d="m114.0 125.666664l24.0 0l0 27.000008l-24.0 0z" fill-rule="nonzero"></path><path stroke="#000000" stroke-width="1.0" stroke-linejoin="round" stroke-linecap="butt" d="m114.0 125.666664l24.0 0l0 27.000008l-24.0 0z" fill-rule="nonzero"></path><path fill="#ff9900" d="m162.0 111.666664l24.0 0l0 27.000008l-24.0 0z" fill-rule="nonzero"></path><path stroke="#000000" stroke-width="1.0" stroke-linejoin="round" stroke-linecap="butt" d="m162.0 111.666664l24.0 0l0 27.000008l-24.0 0z" fill-rule="nonzero"></path><path fill="#ff9900" d="m110.0 184.66667l24.0 0l0 27.0l-24.0 0z" fill-rule="nonzero"></path><path stroke="#000000" stroke-width="1.0" stroke-linejoin="round" stroke-linecap="butt" d="m110.0 184.66667l24.0 0l0 27.0l-24.0 0z" fill-rule="nonzero"></path><path fill="#ff9900" d="m194.0 157.66667l24.0 0l0 27.0l-24.0 0z" fill-rule="nonzero"></path><path stroke="#000000" stroke-width="1.0" stroke-linejoin="round" stroke-linecap="butt" d="m194.0 157.66667l24.0 0l0 27.0l-24.0 0z" fill-rule="nonzero"></path><path fill="#ff9900" d="m18.0 211.66667l24.0 0l0 27.0l-24.0 0z" fill-rule="nonzero"></path><path stroke="#000000" stroke-width="1.0" stroke-linejoin="round" stroke-linecap="butt" d="m18.0 211.66667l24.0 0l0 27.0l-24.0 0z" fill-rule="nonzero"></path><path fill="#ff9900" d="m68.0 221.66667l24.0 0l0 27.0l-24.0 0z" fill-rule="nonzero"></path><path stroke="#000000" stroke-width="1.0" stroke-linejoin="round" stroke-linecap="butt" d="m68.0 221.66667l24.0 0l0 27.0l-24.0 0z" fill-rule="nonzero"></path><path fill="#ff9900" d="m134.0 221.66667l24.0 0l0 27.0l-24.0 0z" fill-rule="nonzero"></path><path stroke="#000000" stroke-width="1.0" stroke-linejoin="round" stroke-linecap="butt" d="m134.0 221.66667l24.0 0l0 27.0l-24.0 0z" fill-rule="nonzero"></path><path fill="#ff9900" d="m186.0 221.66667l24.0 0l0 27.0l-24.0 0z" fill-rule="nonzero"></path><path stroke="#000000" stroke-width="1.0" stroke-linejoin="round" stroke-linecap="butt" d="m186.0 221.66667l24.0 0l0 27.0l-24.0 0z" fill-rule="nonzero"></path><path fill="#00ff00" d="m234.0 216.66667l24.0 0l0 27.0l-24.0 0z" fill-rule="nonzero"></path><path stroke="#000000" stroke-width="1.0" stroke-linejoin="round" stroke-linecap="butt" d="m234.0 216.66667l24.0 0l0 27.0l-24.0 0z" fill-rule="nonzero"></path><path fill="#ff9900" d="m42.0 268.66666l24.0 0l0 27.0l-24.0 0z" fill-rule="nonzero"></path><path stroke="#000000" stroke-width="1.0" stroke-linejoin="round" stroke-linecap="butt" d="m42.0 268.66666l24.0 0l0 27.0l-24.0 0z" fill-rule="nonzero"></path><path fill="#00ff00" d="m97.0 268.66666l24.0 0l0 27.0l-24.0 0z" fill-rule="nonzero"></path><path stroke="#000000" stroke-width="1.0" stroke-linejoin="round" stroke-linecap="butt" d="m97.0 268.66666l24.0 0l0 27.0l-24.0 0z" fill-rule="nonzero"></path><path fill="#00ff00" d="m145.0 365.66666l24.0 0l0 27.0l-24.0 0z" fill-rule="nonzero"></path><path stroke="#000000" stroke-width="1.0" stroke-linejoin="round" stroke-linecap="butt" d="m145.0 365.66666l24.0 0l0 27.0l-24.0 0z" fill-rule="nonzero"></path><path fill="#00ff00" d="m106.0 326.66666l24.0 0l0 27.0l-24.0 0z" fill-rule="nonzero"></path><path stroke="#000000" stroke-width="1.0" stroke-linejoin="round" stroke-linecap="butt" d="m106.0 326.66666l24.0 0l0 27.0l-24.0 0z" fill-rule="nonzero"></path><path fill="#00ff00" d="m82.0 370.66666l24.0 0l0 27.0l-24.0 0z" fill-rule="nonzero"></path><path stroke="#000000" stroke-width="1.0" stroke-linejoin="round" stroke-linecap="butt" d="m82.0 370.66666l24.0 0l0 27.0l-24.0 0z" fill-rule="nonzero"></path><path fill="#00ff00" d="m145.0 413.66666l24.0 0l0 27.0l-24.0 0z" fill-rule="nonzero"></path><path stroke="#000000" stroke-width="1.0" stroke-linejoin="round" stroke-linecap="butt" d="m145.0 413.66666l24.0 0l0 27.0l-24.0 0z" fill-rule="nonzero"></path><path fill="#00ff00" d="m243.0 262.66666l24.0 0l0 27.0l-24.0 0z" fill-rule="nonzero"></path><path stroke="#000000" stroke-width="1.0" stroke-linejoin="round" stroke-linecap="butt" d="m243.0 262.66666l24.0 0l0 27.0l-24.0 0z" fill-rule="nonzero"></path><path fill="#00ff00" d="m82.0 413.66666l24.0 0l0 27.0l-24.0 0z" fill-rule="nonzero"></path><path stroke="#000000" stroke-width="1.0" stroke-linejoin="round" stroke-linecap="butt" d="m82.0 413.66666l24.0 0l0 27.0l-24.0 0z" fill-rule="nonzero"></path><path fill="#00ff00" d="m226.0 346.16666l24.0 0l0 27.0l-24.0 0z" fill-rule="nonzero"></path><path stroke="#000000" stroke-width="1.0" stroke-linejoin="round" stroke-linecap="butt" d="m226.0 346.16666l24.0 0l0 27.0l-24.0 0z" fill-rule="nonzero"></path><path fill="#00ff00" d="m250.0 308.66666l24.0 0l0 27.0l-24.0 0z" fill-rule="nonzero"></path><path stroke="#000000" stroke-width="1.0" stroke-linejoin="round" stroke-linecap="butt" d="m250.0 308.66666l24.0 0l0 27.0l-24.0 0z" fill-rule="nonzero"></path><path fill="#00ff00" d="m274.0 389.16666l24.0 0l0 27.0l-24.0 0z" fill-rule="nonzero"></path><path stroke="#000000" stroke-width="1.0" stroke-linejoin="round" stroke-linecap="butt" d="m274.0 389.16666l24.0 0l0 27.0l-24.0 0z" fill-rule="nonzero"></path><path fill="#00ff00" d="m274.0 353.66666l24.0 0l0 27.0l-24.0 0z" fill-rule="nonzero"></path><path stroke="#000000" stroke-width="1.0" stroke-linejoin="round" stroke-linecap="butt" d="m274.0 353.66666l24.0 0l0 27.0l-24.0 0z" fill-rule="nonzero"></path><path fill="#00ff00" d="m274.0 424.66666l24.0 0l0 27.0l-24.0 0z" fill-rule="nonzero"></path><path stroke="#000000" stroke-width="1.0" stroke-linejoin="round" stroke-linecap="butt" d="m274.0 424.66666l24.0 0l0 27.0l-24.0 0z" fill-rule="nonzero"></path><path fill="#000000" fill-opacity="0.0" d="m126.0 69.65092l-32.0 34.015747" fill-rule="nonzero"></path><path stroke="#000000" stroke-width="1.0" stroke-linejoin="round" stroke-linecap="butt" d="m126.0 69.65092l-32.0 34.015747" fill-rule="nonzero"></path><path fill="#000000" fill-opacity="0.0" d="m94.0 130.66667l-24.0 26.992126" fill-rule="nonzero"></path><path stroke="#000000" stroke-width="1.0" stroke-linejoin="round" stroke-linecap="butt" d="m94.0 130.66667l-24.0 26.992126" fill-rule="nonzero"></path><path fill="#000000" fill-opacity="0.0" d="m126.0 125.666664l0 -56.0" fill-rule="nonzero"></path><path stroke="#000000" stroke-width="1.0" stroke-linejoin="round" stroke-linecap="butt" d="m126.0 125.666664l0 -56.0" fill-rule="nonzero"></path><path fill="#000000" fill-opacity="0.0" d="m126.0 152.66667l-4.0 32.0" fill-rule="nonzero"></path><path stroke="#000000" stroke-width="1.0" stroke-linejoin="round" stroke-linecap="butt" d="m126.0 152.66667l-4.0 32.0" fill-rule="nonzero"></path><path fill="#000000" fill-opacity="0.0" d="m70.0 184.66667l10.015747 37.007874" fill-rule="nonzero"></path><path stroke="#000000" stroke-width="1.0" stroke-linejoin="round" stroke-linecap="butt" d="m70.0 184.66667l10.015747 37.007874" fill-rule="nonzero"></path><path fill="#000000" fill-opacity="0.0" d="m70.0 184.66667l-40.0 26.992126" fill-rule="nonzero"></path><path stroke="#000000" stroke-width="1.0" stroke-linejoin="round" stroke-linecap="butt" d="m70.0 184.66667l-40.0 26.992126" fill-rule="nonzero"></path><path fill="#000000" fill-opacity="0.0" d="m80.0 248.66667l-25.984253 19.999985" fill-rule="nonzero"></path><path stroke="#000000" stroke-width="1.0" stroke-linejoin="round" stroke-linecap="butt" d="m80.0 248.66667l-25.984253 19.999985" fill-rule="nonzero"></path><path fill="#000000" fill-opacity="0.0" d="m80.0 248.66667l29.007874 19.999985" fill-rule="nonzero"></path><path stroke="#000000" stroke-width="1.0" stroke-linejoin="round" stroke-linecap="butt" d="m80.0 248.66667l29.007874 19.999985" fill-rule="nonzero"></path><path fill="#000000" fill-opacity="0.0" d="m109.0 295.66666l9.007874 30.992126" fill-rule="nonzero"></path><path stroke="#000000" stroke-width="1.0" stroke-linejoin="round" stroke-linecap="butt" d="m109.0 295.66666l9.007874 30.992126" fill-rule="nonzero"></path><path fill="#000000" fill-opacity="0.0" d="m118.0 353.66666l-12.0 30.48819" fill-rule="nonzero"></path><path stroke="#000000" stroke-width="1.0" stroke-linejoin="round" stroke-linecap="butt" d="m118.0 353.66666l-12.0 30.48819" fill-rule="nonzero"></path><path fill="#000000" fill-opacity="0.0" d="m118.0 353.66666l38.992126 12.0" fill-rule="nonzero"></path><path stroke="#000000" stroke-width="1.0" stroke-linejoin="round" stroke-linecap="butt" d="m118.0 353.66666l38.992126 12.0" fill-rule="nonzero"></path><path fill="#000000" fill-opacity="0.0" d="m157.0 392.66666l0 21.007874" fill-rule="nonzero"></path><path stroke="#000000" stroke-width="1.0" stroke-linejoin="round" stroke-linecap="butt" d="m157.0 392.66666l0 21.007874" fill-rule="nonzero"></path><path fill="#000000" fill-opacity="0.0" d="m94.0 397.66666l0 16.0" fill-rule="nonzero"></path><path stroke="#000000" stroke-width="1.0" stroke-linejoin="round" stroke-linecap="butt" d="m94.0 397.66666l0 16.0" fill-rule="nonzero"></path><path fill="#000000" fill-opacity="0.0" d="m126.0 69.666664l48.0 42.015747" fill-rule="nonzero"></path><path stroke="#000000" stroke-width="1.0" stroke-linejoin="round" stroke-linecap="butt" d="m126.0 69.666664l48.0 42.015747" fill-rule="nonzero"></path><path fill="#000000" fill-opacity="0.0" d="m122.0 211.65092l24.0 10.015747" fill-rule="nonzero"></path><path stroke="#000000" stroke-width="1.0" stroke-linejoin="round" stroke-linecap="butt" d="m122.0 211.65092l24.0 10.015747" fill-rule="nonzero"></path><path fill="#000000" fill-opacity="0.0" d="m174.0 138.66667l32.0 18.992126" fill-rule="nonzero"></path><path stroke="#000000" stroke-width="1.0" stroke-linejoin="round" stroke-linecap="butt" d="m174.0 138.66667l32.0 18.992126" fill-rule="nonzero"></path><path fill="#000000" fill-opacity="0.0" d="m206.0 184.66667l-8.0 37.007874" fill-rule="nonzero"></path><path stroke="#000000" stroke-width="1.0" stroke-linejoin="round" stroke-linecap="butt" d="m206.0 184.66667l-8.0 37.007874" fill-rule="nonzero"></path><path fill="#000000" fill-opacity="0.0" d="m206.0 184.66667l40.0 32.0" fill-rule="nonzero"></path><path stroke="#000000" stroke-width="1.0" stroke-linejoin="round" stroke-linecap="butt" d="m206.0 184.66667l40.0 32.0" fill-rule="nonzero"></path><path fill="#000000" fill-opacity="0.0" d="m246.0 243.66667l9.007874 18.992111" fill-rule="nonzero"></path><path stroke="#000000" stroke-width="1.0" stroke-linejoin="round" stroke-linecap="butt" d="m246.0 243.66667l9.007874 18.992111" fill-rule="nonzero"></path><path fill="#000000" fill-opacity="0.0" d="m255.0 289.66666l6.9921265 18.992126" fill-rule="nonzero"></path><path stroke="#000000" stroke-width="1.0" stroke-linejoin="round" stroke-linecap="butt" d="m255.0 289.66666l6.9921265 18.992126" fill-rule="nonzero"></path><path fill="#000000" fill-opacity="0.0" d="m262.0 335.66666l-22.015747 10.015747" fill-rule="nonzero"></path><path stroke="#000000" stroke-width="1.0" stroke-linejoin="round" stroke-linecap="butt" d="m262.0 335.66666l-22.015747 10.015747" fill-rule="nonzero"></path><path fill="#000000" fill-opacity="0.0" d="m262.0 335.66666l24.0 18.015747" fill-rule="nonzero"></path><path stroke="#000000" stroke-width="1.0" stroke-linejoin="round" stroke-linecap="butt" d="m262.0 335.66666l24.0 18.015747" fill-rule="nonzero"></path><path fill="#000000" fill-opacity="0.0" d="m286.0 380.66666l0 8.503937" fill-rule="nonzero"></path><path stroke="#000000" stroke-width="1.0" stroke-linejoin="round" stroke-linecap="butt" d="m286.0 380.66666l0 8.503937" fill-rule="nonzero"></path><path fill="#000000" fill-opacity="0.0" d="m286.0 424.66666l0 0" fill-rule="nonzero"></path><path stroke="#000000" stroke-width="1.0" stroke-linejoin="round" stroke-linecap="butt" d="m286.0 424.66666l0 0" fill-rule="nonzero"></path><path fill="#000000" fill-opacity="0.0" d="m286.0 424.66666l0 -8.503937" fill-rule="nonzero"></path><path stroke="#000000" stroke-width="1.0" stroke-linejoin="round" stroke-linecap="butt" d="m286.0 424.66666l0 -8.503937" fill-rule="nonzero"></path><path fill="#00ff00" d="m314.50394 265.16666l24.0 0l0 27.0l-24.0 0z" fill-rule="nonzero"></path><path stroke="#000000" stroke-width="1.0" stroke-linejoin="round" stroke-linecap="butt" d="m314.50394 265.16666l24.0 0l0 27.0l-24.0 0z" fill-rule="nonzero"></path><path fill="#00ff00" d="m314.50394 309.41602l24.0 0l0 27.0l-24.0 0z" fill-rule="nonzero"></path><path stroke="#000000" stroke-width="1.0" stroke-linejoin="round" stroke-linecap="butt" d="m314.50394 309.41602l24.0 0l0 27.0l-24.0 0z" fill-rule="nonzero"></path><path fill="#00ff00" d="m314.50394 398.66666l24.0 0l0 27.0l-24.0 0z" fill-rule="nonzero"></path><path stroke="#000000" stroke-width="1.0" stroke-linejoin="round" stroke-linecap="butt" d="m314.50394 398.66666l24.0 0l0 27.0l-24.0 0z" fill-rule="nonzero"></path><path fill="#00ff00" d="m314.50394 353.66534l24.0 0l0 27.0l-24.0 0z" fill-rule="nonzero"></path><path stroke="#000000" stroke-width="1.0" stroke-linejoin="round" stroke-linecap="butt" d="m314.50394 353.66534l24.0 0l0 27.0l-24.0 0z" fill-rule="nonzero"></path><path fill="#00ff00" d="m314.50394 451.65747l24.0 0l0 27.0l-24.0 0z" fill-rule="nonzero"></path><path stroke="#000000" stroke-width="1.0" stroke-linejoin="round" stroke-linecap="butt" d="m314.50394 451.65747l24.0 0l0 27.0l-24.0 0z" fill-rule="nonzero"></path><path fill="#000000" fill-opacity="0.0" d="m326.50394 292.16666l0 17.259857" fill-rule="nonzero"></path><path stroke="#000000" stroke-width="1.0" stroke-linejoin="round" stroke-linecap="butt" d="m326.50394 292.16666l0 17.259857" fill-rule="nonzero"></path><path fill="#000000" fill-opacity="0.0" d="m326.50394 336.41602l0 17.259827" fill-rule="nonzero"></path><path stroke="#000000" stroke-width="1.0" stroke-linejoin="round" stroke-linecap="butt" d="m326.50394 336.41602l0 17.259827" fill-rule="nonzero"></path><path fill="#000000" fill-opacity="0.0" d="m326.50394 380.66534l0 18.015747" fill-rule="nonzero"></path><path stroke="#000000" stroke-width="1.0" stroke-linejoin="round" stroke-linecap="butt" d="m326.50394 380.66534l0 18.015747" fill-rule="nonzero"></path><path fill="#000000" fill-opacity="0.0" d="m326.50394 451.65747l0 0" fill-rule="nonzero"></path><path stroke="#000000" stroke-width="1.0" stroke-linejoin="round" stroke-linecap="butt" d="m326.50394 451.65747l0 0" fill-rule="nonzero"></path><path fill="#000000" fill-opacity="0.0" d="m326.50394 451.65747l0 -25.984253" fill-rule="nonzero"></path><path stroke="#000000" stroke-width="1.0" stroke-linejoin="round" stroke-linecap="butt" d="m326.50394 451.65747l0 -25.984253" fill-rule="nonzero"></path><path fill="#000000" fill-opacity="0.0" d="m326.50394 265.16666l-80.50394 -21.511795" fill-rule="nonzero"></path><path stroke="#000000" stroke-width="1.0" stroke-linejoin="round" stroke-linecap="butt" d="m326.50394 265.16666l-80.50394 -21.511795" fill-rule="nonzero"></path></g></svg>

